<mxfile host="Electron" agent="Mozilla/5.0 (Windows NT 10.0; Win64; x64) AppleWebKit/537.36 (KHTML, like Gecko) draw.io/26.0.4 Chrome/128.0.6613.186 Electron/32.2.5 Safari/537.36" version="26.0.4">
  <diagram id="VRIWvG7t2p2S4sPS8mSp" name="Page-1">
    <mxGraphModel dx="1793" dy="1055" grid="1" gridSize="10" guides="1" tooltips="1" connect="1" arrows="1" fold="1" page="1" pageScale="1" pageWidth="1169" pageHeight="827" math="0" shadow="0">
      <root>
        <mxCell id="0" />
        <mxCell id="1" parent="0" />
        <mxCell id="4" value="Исполнение заказа" style="swimlane;html=1;childLayout=stackLayout;resizeParent=1;resizeParentMax=0;horizontal=0;startSize=20;horizontalStack=0;whiteSpace=wrap;" parent="1" vertex="1">
          <mxGeometry x="80" y="400" width="2220" height="280" as="geometry" />
        </mxCell>
        <mxCell id="5" value="Заказчик" style="swimlane;html=1;startSize=20;horizontal=0;" parent="4" vertex="1">
          <mxGeometry x="20" width="2200" height="120" as="geometry">
            <mxRectangle x="20" width="710" height="30" as="alternateBounds" />
          </mxGeometry>
        </mxCell>
        <mxCell id="161" value="" style="points=[[0.145,0.145,0],[0.5,0,0],[0.855,0.145,0],[1,0.5,0],[0.855,0.855,0],[0.5,1,0],[0.145,0.855,0],[0,0.5,0]];shape=mxgraph.bpmn.event;html=1;verticalLabelPosition=bottom;labelBackgroundColor=#ffffff;verticalAlign=top;align=center;perimeter=ellipsePerimeter;outlineConnect=0;aspect=fixed;outline=end;symbol=terminate2;strokeColor=default;" parent="5" vertex="1">
          <mxGeometry x="695" y="35" width="50" height="50" as="geometry" />
        </mxCell>
        <mxCell id="131" value="Подписание отчёта о выполненных работах" style="points=[[0.25,0,0],[0.5,0,0],[0.75,0,0],[1,0.25,0],[1,0.5,0],[1,0.75,0],[0.75,1,0],[0.5,1,0],[0.25,1,0],[0,0.75,0],[0,0.5,0],[0,0.25,0]];shape=mxgraph.bpmn.task;whiteSpace=wrap;rectStyle=rounded;size=10;html=1;taskMarker=manual;strokeColor=default;" parent="5" vertex="1">
          <mxGeometry x="1840" y="20" width="120" height="80" as="geometry" />
        </mxCell>
        <mxCell id="134" value="Услуга получена" style="text;html=1;align=center;verticalAlign=middle;resizable=0;points=[];autosize=1;strokeColor=none;fillColor=none;" parent="5" vertex="1">
          <mxGeometry x="2075" y="85" width="120" height="30" as="geometry" />
        </mxCell>
        <mxCell id="128" value="Изменение статуса задачи&lt;div&gt;(на провалено)&lt;/div&gt;" style="points=[[0.25,0,0],[0.5,0,0],[0.75,0,0],[1,0.25,0],[1,0.5,0],[1,0.75,0],[0.75,1,0],[0.5,1,0],[0.25,1,0],[0,0.75,0],[0,0.5,0],[0,0.25,0]];shape=mxgraph.bpmn.task;whiteSpace=wrap;rectStyle=rounded;size=10;html=1;taskMarker=user;strokeColor=default;" parent="5" vertex="1">
          <mxGeometry x="1120" y="20" width="120" height="80" as="geometry" />
        </mxCell>
        <mxCell id="5nUSWNSxmODM9DKenBCi-491" value="" style="points=[[0.145,0.145,0],[0.5,0,0],[0.855,0.145,0],[1,0.5,0],[0.855,0.855,0],[0.5,1,0],[0.145,0.855,0],[0,0.5,0]];shape=mxgraph.bpmn.event;html=1;verticalLabelPosition=bottom;labelBackgroundColor=#ffffff;verticalAlign=top;align=center;perimeter=ellipsePerimeter;outlineConnect=0;aspect=fixed;outline=end;symbol=terminate2;" vertex="1" parent="5">
          <mxGeometry x="1535" y="29" width="50" height="50" as="geometry" />
        </mxCell>
        <mxCell id="5nUSWNSxmODM9DKenBCi-496" value="" style="edgeStyle=orthogonalEdgeStyle;rounded=0;orthogonalLoop=1;jettySize=auto;html=1;" edge="1" parent="5" source="5nUSWNSxmODM9DKenBCi-495" target="131">
          <mxGeometry relative="1" as="geometry" />
        </mxCell>
        <mxCell id="5nUSWNSxmODM9DKenBCi-495" value="Изменение статуса задачи&lt;div&gt;(на выполнено)&lt;/div&gt;" style="points=[[0.25,0,0],[0.5,0,0],[0.75,0,0],[1,0.25,0],[1,0.5,0],[1,0.75,0],[0.75,1,0],[0.5,1,0],[0.25,1,0],[0,0.75,0],[0,0.5,0],[0,0.25,0]];shape=mxgraph.bpmn.task;whiteSpace=wrap;rectStyle=rounded;size=10;html=1;taskMarker=user;strokeColor=default;" vertex="1" parent="5">
          <mxGeometry x="1680" y="20" width="120" height="80" as="geometry" />
        </mxCell>
        <mxCell id="72" value="" style="points=[[0.145,0.145,0],[0.5,0,0],[0.855,0.145,0],[1,0.5,0],[0.855,0.855,0],[0.5,1,0],[0.145,0.855,0],[0,0.5,0]];shape=mxgraph.bpmn.event;html=1;verticalLabelPosition=bottom;labelBackgroundColor=#ffffff;verticalAlign=top;align=center;perimeter=ellipsePerimeter;outlineConnect=0;aspect=fixed;outline=end;symbol=terminate2;" parent="5" vertex="1">
          <mxGeometry x="2110" y="35" width="50" height="50" as="geometry" />
        </mxCell>
        <mxCell id="5nUSWNSxmODM9DKenBCi-531" value="" style="points=[[0.145,0.145,0],[0.5,0,0],[0.855,0.145,0],[1,0.5,0],[0.855,0.855,0],[0.5,1,0],[0.145,0.855,0],[0,0.5,0]];shape=mxgraph.bpmn.event;html=1;verticalLabelPosition=bottom;labelBackgroundColor=#ffffff;verticalAlign=top;align=center;perimeter=ellipsePerimeter;outlineConnect=0;aspect=fixed;outline=standard;symbol=general;" vertex="1" parent="5">
          <mxGeometry x="65" y="40" width="50" height="50" as="geometry" />
        </mxCell>
        <mxCell id="163" value="Заказ провален,&lt;br&gt;нужно завести новый заказ" style="text;html=1;align=center;verticalAlign=middle;resizable=0;points=[];autosize=1;strokeColor=none;fillColor=none;" parent="5" vertex="1">
          <mxGeometry x="630" width="180" height="40" as="geometry" />
        </mxCell>
        <mxCell id="5nUSWNSxmODM9DKenBCi-534" value="Создание заказа" style="text;html=1;align=center;verticalAlign=middle;resizable=0;points=[];autosize=1;strokeColor=none;fillColor=none;" vertex="1" parent="5">
          <mxGeometry x="30" y="10" width="120" height="30" as="geometry" />
        </mxCell>
        <mxCell id="5nUSWNSxmODM9DKenBCi-492" value="Услуга не получена,&lt;div&gt;заказчику необходимо&lt;/div&gt;&lt;div&gt;создать новую услугу&lt;/div&gt;" style="text;html=1;align=center;verticalAlign=middle;resizable=0;points=[];autosize=1;strokeColor=none;fillColor=none;" vertex="1" parent="5">
          <mxGeometry x="1385" width="150" height="60" as="geometry" />
        </mxCell>
        <mxCell id="51" value="Исполнитель" style="swimlane;html=1;startSize=20;horizontal=0;" parent="4" vertex="1">
          <mxGeometry x="20" y="120" width="2200" height="160" as="geometry">
            <mxRectangle x="20" y="120" width="710" height="30" as="alternateBounds" />
          </mxGeometry>
        </mxCell>
        <mxCell id="64" value="" style="edgeStyle=orthogonalEdgeStyle;rounded=0;html=1;entryX=0;entryY=0.5;entryDx=0;entryDy=0;entryPerimeter=0;exitX=1;exitY=0.5;exitDx=0;exitDy=0;exitPerimeter=0;" parent="51" edge="1" target="127" source="125">
          <mxGeometry relative="1" as="geometry">
            <mxPoint x="551" y="60" as="sourcePoint" />
            <mxPoint x="591" y="60" as="targetPoint" />
          </mxGeometry>
        </mxCell>
        <mxCell id="125" value="Отметка о начале заказа (фотография и нажатие кнопки &quot;приступил&quot;)" style="points=[[0.25,0,0],[0.5,0,0],[0.75,0,0],[1,0.25,0],[1,0.5,0],[1,0.75,0],[0.75,1,0],[0.5,1,0],[0.25,1,0],[0,0.75,0],[0,0.5,0],[0,0.25,0]];shape=mxgraph.bpmn.task;whiteSpace=wrap;rectStyle=rounded;size=10;html=1;taskMarker=user;strokeColor=default;" parent="51" vertex="1">
          <mxGeometry x="840" y="40" width="151" height="80" as="geometry" />
        </mxCell>
        <mxCell id="127" value="Выполнение работ" style="points=[[0.25,0,0],[0.5,0,0],[0.75,0,0],[1,0.25,0],[1,0.5,0],[1,0.75,0],[0.75,1,0],[0.5,1,0],[0.25,1,0],[0,0.75,0],[0,0.5,0],[0,0.25,0]];shape=mxgraph.bpmn.task;whiteSpace=wrap;rectStyle=rounded;size=10;html=1;taskMarker=manual;strokeColor=default;" parent="51" vertex="1">
          <mxGeometry x="1030" y="40" width="120" height="80" as="geometry" />
        </mxCell>
        <mxCell id="157" value="" style="edgeStyle=orthogonalEdgeStyle;fontSize=12;html=1;endArrow=blockThin;endFill=1;startArrow=diamondThin;startFill=0;endSize=6;startSize=10;rounded=0;jumpStyle=gap;entryX=0;entryY=0.5;entryDx=0;entryDy=0;entryPerimeter=0;exitX=1;exitY=0.25;exitDx=0;exitDy=0;exitPerimeter=0;" parent="51" target="5nUSWNSxmODM9DKenBCi-545" edge="1" source="5nUSWNSxmODM9DKenBCi-549">
          <mxGeometry width="160" relative="1" as="geometry">
            <mxPoint x="320" y="80" as="sourcePoint" />
            <mxPoint x="320" y="80" as="targetPoint" />
            <Array as="points">
              <mxPoint x="330" y="60" />
              <mxPoint x="330" y="80" />
            </Array>
          </mxGeometry>
        </mxCell>
        <mxCell id="158" value="Исполнитель не&lt;br&gt;пришёл на заказ" style="text;html=1;align=center;verticalAlign=middle;resizable=0;points=[];autosize=1;strokeColor=none;fillColor=none;" parent="51" vertex="1">
          <mxGeometry x="320" y="40" width="120" height="40" as="geometry" />
        </mxCell>
        <mxCell id="160" value="Исполнитель&lt;br&gt;пришёл на заказ" style="text;html=1;align=center;verticalAlign=middle;resizable=0;points=[];autosize=1;strokeColor=none;fillColor=none;" parent="51" vertex="1">
          <mxGeometry x="320" y="110" width="120" height="40" as="geometry" />
        </mxCell>
        <mxCell id="132" value="Отметка об окончании заказа (фотография подписанного отчёта)" style="points=[[0.25,0,0],[0.5,0,0],[0.75,0,0],[1,0.25,0],[1,0.5,0],[1,0.75,0],[0.75,1,0],[0.5,1,0],[0.25,1,0],[0,0.75,0],[0,0.5,0],[0,0.25,0]];shape=mxgraph.bpmn.task;whiteSpace=wrap;rectStyle=rounded;size=10;html=1;taskMarker=user;strokeColor=default;" parent="51" vertex="1">
          <mxGeometry x="1840" y="40" width="120" height="80" as="geometry" />
        </mxCell>
        <mxCell id="5nUSWNSxmODM9DKenBCi-536" value="" style="edgeStyle=orthogonalEdgeStyle;fontSize=12;html=1;endArrow=blockThin;endFill=1;startArrow=diamondThin;startFill=0;endSize=6;startSize=10;rounded=0;entryX=0;entryY=0.5;entryDx=0;entryDy=0;entryPerimeter=0;exitX=1;exitY=0.75;exitDx=0;exitDy=0;exitPerimeter=0;" edge="1" parent="51" source="5nUSWNSxmODM9DKenBCi-549" target="125">
          <mxGeometry width="160" relative="1" as="geometry">
            <mxPoint x="330" y="90" as="sourcePoint" />
            <mxPoint x="340" y="80" as="targetPoint" />
            <Array as="points">
              <mxPoint x="330" y="100" />
              <mxPoint x="330" y="150" />
              <mxPoint x="830" y="150" />
              <mxPoint x="830" y="80" />
            </Array>
          </mxGeometry>
        </mxCell>
        <mxCell id="5nUSWNSxmODM9DKenBCi-539" value="&lt;span style=&quot;text-wrap: nowrap;&quot;&gt;Отправка информации&lt;/span&gt;&lt;div&gt;&lt;span style=&quot;text-wrap: nowrap;&quot;&gt;о заказе в систему ставок&lt;/span&gt;&lt;/div&gt;" style="points=[[0.25,0,0],[0.5,0,0],[0.75,0,0],[1,0.25,0],[1,0.5,0],[1,0.75,0],[0.75,1,0],[0.5,1,0],[0.25,1,0],[0,0.75,0],[0,0.5,0],[0,0.25,0]];shape=mxgraph.bpmn.task;whiteSpace=wrap;rectStyle=rounded;size=10;html=1;container=1;expand=0;collapsible=0;taskMarker=send;" vertex="1" parent="51">
          <mxGeometry x="2000" y="40" width="160" height="80" as="geometry" />
        </mxCell>
        <mxCell id="5nUSWNSxmODM9DKenBCi-540" style="edgeStyle=orthogonalEdgeStyle;rounded=0;orthogonalLoop=1;jettySize=auto;html=1;entryX=0;entryY=0.5;entryDx=0;entryDy=0;entryPerimeter=0;" edge="1" parent="51" source="132" target="5nUSWNSxmODM9DKenBCi-539">
          <mxGeometry relative="1" as="geometry" />
        </mxCell>
        <mxCell id="5nUSWNSxmODM9DKenBCi-542" value="&lt;span style=&quot;text-wrap: nowrap;&quot;&gt;Отправка информации&lt;/span&gt;&lt;div&gt;&lt;span style=&quot;text-wrap: nowrap;&quot;&gt;о заказе в систему ставок&lt;/span&gt;&lt;/div&gt;" style="points=[[0.25,0,0],[0.5,0,0],[0.75,0,0],[1,0.25,0],[1,0.5,0],[1,0.75,0],[0.75,1,0],[0.5,1,0],[0.25,1,0],[0,0.75,0],[0,0.5,0],[0,0.25,0]];shape=mxgraph.bpmn.task;whiteSpace=wrap;rectStyle=rounded;size=10;html=1;container=1;expand=0;collapsible=0;taskMarker=send;" vertex="1" parent="51">
          <mxGeometry x="1280" y="40" width="160" height="80" as="geometry" />
        </mxCell>
        <mxCell id="5nUSWNSxmODM9DKenBCi-557" value="" style="edgeStyle=orthogonalEdgeStyle;rounded=0;orthogonalLoop=1;jettySize=auto;html=1;" edge="1" parent="51" source="5nUSWNSxmODM9DKenBCi-545" target="5nUSWNSxmODM9DKenBCi-556">
          <mxGeometry relative="1" as="geometry" />
        </mxCell>
        <mxCell id="5nUSWNSxmODM9DKenBCi-545" value="&lt;span style=&quot;text-wrap: nowrap;&quot;&gt;Отправка информации&lt;/span&gt;&lt;div&gt;&lt;span style=&quot;text-wrap: nowrap;&quot;&gt;о заказе в систему ставок&lt;/span&gt;&lt;/div&gt;" style="points=[[0.25,0,0],[0.5,0,0],[0.75,0,0],[1,0.25,0],[1,0.5,0],[1,0.75,0],[0.75,1,0],[0.5,1,0],[0.25,1,0],[0,0.75,0],[0,0.5,0],[0,0.25,0]];shape=mxgraph.bpmn.task;whiteSpace=wrap;rectStyle=rounded;size=10;html=1;container=1;expand=0;collapsible=0;taskMarker=send;" vertex="1" parent="51">
          <mxGeometry x="440" y="40" width="160" height="80" as="geometry" />
        </mxCell>
        <mxCell id="5nUSWNSxmODM9DKenBCi-550" value="Добавление задачи в список активных задач исполнителя" style="points=[[0.25,0,0],[0.5,0,0],[0.75,0,0],[1,0.25,0],[1,0.5,0],[1,0.75,0],[0.75,1,0],[0.5,1,0],[0.25,1,0],[0,0.75,0],[0,0.5,0],[0,0.25,0]];shape=mxgraph.bpmn.task;whiteSpace=wrap;rectStyle=rounded;size=10;html=1;taskMarker=abstract;strokeColor=default;" vertex="1" parent="51">
          <mxGeometry x="30" y="40" width="120" height="80" as="geometry" />
        </mxCell>
        <mxCell id="5nUSWNSxmODM9DKenBCi-549" value="Получение расходников" style="points=[[0.25,0,0],[0.5,0,0],[0.75,0,0],[1,0.25,0],[1,0.5,0],[1,0.75,0],[0.75,1,0],[0.5,1,0],[0.25,1,0],[0,0.75,0],[0,0.5,0],[0,0.25,0]];shape=mxgraph.bpmn.task;whiteSpace=wrap;rectStyle=rounded;size=10;html=1;taskMarker=manual;strokeColor=default;" vertex="1" parent="51">
          <mxGeometry x="190" y="40" width="120" height="80" as="geometry" />
        </mxCell>
        <mxCell id="5nUSWNSxmODM9DKenBCi-552" style="edgeStyle=orthogonalEdgeStyle;rounded=0;orthogonalLoop=1;jettySize=auto;html=1;entryX=0;entryY=0.5;entryDx=0;entryDy=0;entryPerimeter=0;" edge="1" parent="51" source="5nUSWNSxmODM9DKenBCi-550" target="5nUSWNSxmODM9DKenBCi-549">
          <mxGeometry relative="1" as="geometry" />
        </mxCell>
        <mxCell id="5nUSWNSxmODM9DKenBCi-554" value="&lt;span style=&quot;text-wrap: nowrap;&quot;&gt;Отправка информации&lt;/span&gt;&lt;div&gt;&lt;span style=&quot;text-wrap: nowrap;&quot;&gt;о заказе в отдел&lt;/span&gt;&lt;/div&gt;&lt;div&gt;&lt;span style=&quot;text-wrap: nowrap;&quot;&gt;контроля качества&lt;/span&gt;&lt;/div&gt;" style="points=[[0.25,0,0],[0.5,0,0],[0.75,0,0],[1,0.25,0],[1,0.5,0],[1,0.75,0],[0.75,1,0],[0.5,1,0],[0.25,1,0],[0,0.75,0],[0,0.5,0],[0,0.25,0]];shape=mxgraph.bpmn.task;whiteSpace=wrap;rectStyle=rounded;size=10;html=1;container=1;expand=0;collapsible=0;taskMarker=send;" vertex="1" parent="51">
          <mxGeometry x="1480" y="40" width="160" height="80" as="geometry" />
        </mxCell>
        <mxCell id="5nUSWNSxmODM9DKenBCi-555" style="edgeStyle=orthogonalEdgeStyle;rounded=0;orthogonalLoop=1;jettySize=auto;html=1;entryX=0;entryY=0.5;entryDx=0;entryDy=0;entryPerimeter=0;" edge="1" parent="51" source="5nUSWNSxmODM9DKenBCi-542" target="5nUSWNSxmODM9DKenBCi-554">
          <mxGeometry relative="1" as="geometry" />
        </mxCell>
        <mxCell id="5nUSWNSxmODM9DKenBCi-497" value="Заказ выполнен" style="text;html=1;align=center;verticalAlign=middle;resizable=0;points=[];autosize=1;strokeColor=none;fillColor=none;" vertex="1" parent="51">
          <mxGeometry x="1150" y="100" width="110" height="30" as="geometry" />
        </mxCell>
        <mxCell id="5nUSWNSxmODM9DKenBCi-489" value="Заказ провален" style="text;html=1;align=center;verticalAlign=middle;resizable=0;points=[];autosize=1;strokeColor=none;fillColor=none;" vertex="1" parent="51">
          <mxGeometry x="1150" y="60" width="110" height="30" as="geometry" />
        </mxCell>
        <mxCell id="5nUSWNSxmODM9DKenBCi-556" value="&lt;span style=&quot;text-wrap: nowrap;&quot;&gt;Отправка информации&lt;/span&gt;&lt;div&gt;&lt;span style=&quot;text-wrap: nowrap;&quot;&gt;о заказе в отдел&lt;/span&gt;&lt;/div&gt;&lt;div&gt;&lt;span style=&quot;text-wrap: nowrap;&quot;&gt;контроля качества&lt;/span&gt;&lt;/div&gt;" style="points=[[0.25,0,0],[0.5,0,0],[0.75,0,0],[1,0.25,0],[1,0.5,0],[1,0.75,0],[0.75,1,0],[0.5,1,0],[0.25,1,0],[0,0.75,0],[0,0.5,0],[0,0.25,0]];shape=mxgraph.bpmn.task;whiteSpace=wrap;rectStyle=rounded;size=10;html=1;container=1;expand=0;collapsible=0;taskMarker=send;" vertex="1" parent="51">
          <mxGeometry x="640" y="40" width="160" height="80" as="geometry" />
        </mxCell>
        <mxCell id="5nUSWNSxmODM9DKenBCi-479" value="" style="edgeStyle=orthogonalEdgeStyle;rounded=0;orthogonalLoop=1;jettySize=auto;html=1;" edge="1" parent="4" source="131" target="132">
          <mxGeometry relative="1" as="geometry" />
        </mxCell>
        <mxCell id="5nUSWNSxmODM9DKenBCi-490" value="" style="edgeStyle=elbowEdgeStyle;fontSize=12;html=1;endArrow=blockThin;endFill=1;startArrow=diamondThin;startFill=0;endSize=6;startSize=10;rounded=0;entryX=0.5;entryY=1;entryDx=0;entryDy=0;entryPerimeter=0;exitX=1;exitY=0.25;exitDx=0;exitDy=0;exitPerimeter=0;" edge="1" parent="4" source="127" target="128">
          <mxGeometry width="160" relative="1" as="geometry">
            <mxPoint x="870" y="190" as="sourcePoint" />
            <mxPoint x="890" y="179.58000000000004" as="targetPoint" />
            <Array as="points">
              <mxPoint x="1200" y="160" />
            </Array>
          </mxGeometry>
        </mxCell>
        <mxCell id="5nUSWNSxmODM9DKenBCi-494" value="" style="edgeStyle=orthogonalEdgeStyle;fontSize=12;html=1;endArrow=blockThin;endFill=1;startArrow=diamondThin;startFill=0;endSize=6;startSize=10;rounded=0;exitX=1;exitY=0.75;exitDx=0;exitDy=0;exitPerimeter=0;entryX=0;entryY=0.5;entryDx=0;entryDy=0;entryPerimeter=0;" edge="1" parent="4" source="127" target="5nUSWNSxmODM9DKenBCi-495">
          <mxGeometry width="160" relative="1" as="geometry">
            <mxPoint x="750" y="190" as="sourcePoint" />
            <mxPoint x="1470" y="90" as="targetPoint" />
            <Array as="points">
              <mxPoint x="1280" y="220" />
              <mxPoint x="1280" y="260" />
              <mxPoint x="1680" y="260" />
              <mxPoint x="1680" y="60" />
            </Array>
          </mxGeometry>
        </mxCell>
        <mxCell id="5nUSWNSxmODM9DKenBCi-541" style="edgeStyle=orthogonalEdgeStyle;rounded=0;orthogonalLoop=1;jettySize=auto;html=1;entryX=0;entryY=0.5;entryDx=0;entryDy=0;entryPerimeter=0;" edge="1" parent="4" source="5nUSWNSxmODM9DKenBCi-539" target="72">
          <mxGeometry relative="1" as="geometry" />
        </mxCell>
        <mxCell id="5nUSWNSxmODM9DKenBCi-543" style="edgeStyle=orthogonalEdgeStyle;rounded=0;orthogonalLoop=1;jettySize=auto;html=1;entryX=0;entryY=0.5;entryDx=0;entryDy=0;entryPerimeter=0;" edge="1" parent="4" source="128" target="5nUSWNSxmODM9DKenBCi-542">
          <mxGeometry relative="1" as="geometry" />
        </mxCell>
        <mxCell id="5nUSWNSxmODM9DKenBCi-544" style="edgeStyle=orthogonalEdgeStyle;rounded=0;orthogonalLoop=1;jettySize=auto;html=1;exitX=0.5;exitY=0;exitDx=0;exitDy=0;exitPerimeter=0;" edge="1" parent="4" source="5nUSWNSxmODM9DKenBCi-554" target="5nUSWNSxmODM9DKenBCi-491">
          <mxGeometry relative="1" as="geometry" />
        </mxCell>
        <mxCell id="5nUSWNSxmODM9DKenBCi-546" style="edgeStyle=orthogonalEdgeStyle;rounded=0;orthogonalLoop=1;jettySize=auto;html=1;entryX=0.5;entryY=1;entryDx=0;entryDy=0;entryPerimeter=0;exitX=0.5;exitY=0;exitDx=0;exitDy=0;exitPerimeter=0;" edge="1" parent="4" source="5nUSWNSxmODM9DKenBCi-556" target="161">
          <mxGeometry relative="1" as="geometry" />
        </mxCell>
        <mxCell id="5nUSWNSxmODM9DKenBCi-551" style="edgeStyle=orthogonalEdgeStyle;rounded=0;orthogonalLoop=1;jettySize=auto;html=1;entryX=0.5;entryY=0;entryDx=0;entryDy=0;entryPerimeter=0;" edge="1" parent="4" source="5nUSWNSxmODM9DKenBCi-531" target="5nUSWNSxmODM9DKenBCi-550">
          <mxGeometry relative="1" as="geometry" />
        </mxCell>
        <mxCell id="45" value="Устройство в штат" style="swimlane;html=1;childLayout=stackLayout;resizeParent=1;resizeParentMax=0;horizontal=0;startSize=20;horizontalStack=0;whiteSpace=wrap;" parent="1" vertex="1">
          <mxGeometry x="81" y="760" width="920" height="240" as="geometry" />
        </mxCell>
        <mxCell id="46" value="Соискатель" style="swimlane;html=1;startSize=20;horizontal=0;" parent="45" vertex="1">
          <mxGeometry x="20" width="900" height="120" as="geometry" />
        </mxCell>
        <mxCell id="78" value="Оставление заявки&lt;br&gt;на сайте" style="text;html=1;align=center;verticalAlign=middle;resizable=0;points=[];autosize=1;strokeColor=none;fillColor=none;" parent="46" vertex="1">
          <mxGeometry x="20" width="130" height="40" as="geometry" />
        </mxCell>
        <mxCell id="135" value="" style="points=[[0.145,0.145,0],[0.5,0,0],[0.855,0.145,0],[1,0.5,0],[0.855,0.855,0],[0.5,1,0],[0.145,0.855,0],[0,0.5,0]];shape=mxgraph.bpmn.event;html=1;verticalLabelPosition=bottom;labelBackgroundColor=#ffffff;verticalAlign=top;align=center;perimeter=ellipsePerimeter;outlineConnect=0;aspect=fixed;outline=standard;symbol=general;strokeColor=default;" parent="46" vertex="1">
          <mxGeometry x="60" y="40" width="50" height="50" as="geometry" />
        </mxCell>
        <mxCell id="94" value="Выполнение тестов" style="points=[[0.25,0,0],[0.5,0,0],[0.75,0,0],[1,0.25,0],[1,0.5,0],[1,0.75,0],[0.75,1,0],[0.5,1,0],[0.25,1,0],[0,0.75,0],[0,0.5,0],[0,0.25,0]];shape=mxgraph.bpmn.task;whiteSpace=wrap;rectStyle=rounded;size=10;html=1;taskMarker=user;strokeColor=default;" parent="46" vertex="1">
          <mxGeometry x="150" y="25" width="120" height="80" as="geometry" />
        </mxCell>
        <mxCell id="145" value="" style="points=[[0.145,0.145,0],[0.5,0,0],[0.855,0.145,0],[1,0.5,0],[0.855,0.855,0],[0.5,1,0],[0.145,0.855,0],[0,0.5,0]];shape=mxgraph.bpmn.event;html=1;verticalLabelPosition=bottom;labelBackgroundColor=#ffffff;verticalAlign=top;align=center;perimeter=ellipsePerimeter;outlineConnect=0;aspect=fixed;outline=end;symbol=terminate2;strokeColor=default;" parent="46" vertex="1">
          <mxGeometry x="540" y="35" width="50" height="50" as="geometry" />
        </mxCell>
        <mxCell id="146" value="Соискатель&lt;br&gt;отбракован" style="text;html=1;align=center;verticalAlign=middle;resizable=0;points=[];autosize=1;strokeColor=none;fillColor=none;" parent="46" vertex="1">
          <mxGeometry x="520" width="90" height="40" as="geometry" />
        </mxCell>
        <mxCell id="149" value="" style="edgeStyle=orthogonalEdgeStyle;rounded=0;jumpStyle=gap;html=1;" parent="46" source="147" target="148" edge="1">
          <mxGeometry relative="1" as="geometry" />
        </mxCell>
        <mxCell id="147" value="Соискатель добавлен в общий пул исполнителей" style="points=[[0.25,0,0],[0.5,0,0],[0.75,0,0],[1,0.25,0],[1,0.5,0],[1,0.75,0],[0.75,1,0],[0.5,1,0],[0.25,1,0],[0,0.75,0],[0,0.5,0],[0,0.25,0]];shape=mxgraph.bpmn.task;whiteSpace=wrap;rectStyle=rounded;size=10;html=1;taskMarker=abstract;strokeColor=default;" parent="46" vertex="1">
          <mxGeometry x="630" y="20" width="120" height="80" as="geometry" />
        </mxCell>
        <mxCell id="148" value="" style="points=[[0.145,0.145,0],[0.5,0,0],[0.855,0.145,0],[1,0.5,0],[0.855,0.855,0],[0.5,1,0],[0.145,0.855,0],[0,0.5,0]];shape=mxgraph.bpmn.event;html=1;verticalLabelPosition=bottom;labelBackgroundColor=#ffffff;verticalAlign=top;align=center;perimeter=ellipsePerimeter;outlineConnect=0;aspect=fixed;outline=end;symbol=terminate2;strokeColor=default;" parent="46" vertex="1">
          <mxGeometry x="790" y="35" width="50" height="50" as="geometry" />
        </mxCell>
        <mxCell id="150" value="Соискатель становится&lt;br&gt;исполнителем" style="text;html=1;align=center;verticalAlign=middle;resizable=0;points=[];autosize=1;strokeColor=none;fillColor=none;" parent="46" vertex="1">
          <mxGeometry x="735" width="160" height="40" as="geometry" />
        </mxCell>
        <mxCell id="47" value="Менеджер" style="swimlane;html=1;startSize=20;horizontal=0;" parent="45" vertex="1">
          <mxGeometry x="20" y="120" width="900" height="120" as="geometry" />
        </mxCell>
        <mxCell id="93" value="Выбор тестов&lt;br style=&quot;border-color: var(--border-color);&quot;&gt;для кандидата" style="points=[[0.25,0,0],[0.5,0,0],[0.75,0,0],[1,0.25,0],[1,0.5,0],[1,0.75,0],[0.75,1,0],[0.5,1,0],[0.25,1,0],[0,0.75,0],[0,0.5,0],[0,0.25,0]];shape=mxgraph.bpmn.task;whiteSpace=wrap;rectStyle=rounded;size=10;html=1;taskMarker=user;strokeColor=default;" parent="47" vertex="1">
          <mxGeometry x="150" y="20" width="120" height="80" as="geometry" />
        </mxCell>
        <mxCell id="95" value="Проверка результата" style="points=[[0.25,0,0],[0.5,0,0],[0.75,0,0],[1,0.25,0],[1,0.5,0],[1,0.75,0],[0.75,1,0],[0.5,1,0],[0.25,1,0],[0,0.75,0],[0,0.5,0],[0,0.25,0]];shape=mxgraph.bpmn.task;whiteSpace=wrap;rectStyle=rounded;size=10;html=1;taskMarker=user;strokeColor=default;" parent="47" vertex="1">
          <mxGeometry x="310" y="20" width="120" height="80" as="geometry" />
        </mxCell>
        <mxCell id="141" value="" style="edgeStyle=elbowEdgeStyle;fontSize=12;html=1;endArrow=blockThin;endFill=1;startArrow=diamondThin;startFill=0;endSize=6;startSize=10;rounded=0;jumpStyle=gap;entryX=0.5;entryY=1;entryDx=0;entryDy=0;entryPerimeter=0;" parent="47" target="145" edge="1">
          <mxGeometry width="160" relative="1" as="geometry">
            <mxPoint x="430" y="40" as="sourcePoint" />
            <mxPoint x="590" y="40" as="targetPoint" />
            <Array as="points">
              <mxPoint x="565" y="10" />
            </Array>
          </mxGeometry>
        </mxCell>
        <mxCell id="142" value="Тест провален" style="text;html=1;align=center;verticalAlign=middle;resizable=0;points=[];autosize=1;strokeColor=none;fillColor=none;" parent="47" vertex="1">
          <mxGeometry x="430" y="10" width="110" height="30" as="geometry" />
        </mxCell>
        <mxCell id="143" value="" style="edgeStyle=elbowEdgeStyle;fontSize=12;html=1;endArrow=blockThin;endFill=1;startArrow=diamondThin;startFill=0;endSize=6;startSize=10;rounded=0;jumpStyle=gap;entryX=0.5;entryY=1;entryDx=0;entryDy=0;entryPerimeter=0;" parent="47" target="147" edge="1">
          <mxGeometry width="160" relative="1" as="geometry">
            <mxPoint x="430" y="80" as="sourcePoint" />
            <mxPoint x="590" y="80" as="targetPoint" />
            <Array as="points">
              <mxPoint x="690" y="30" />
            </Array>
          </mxGeometry>
        </mxCell>
        <mxCell id="144" value="Тест пройден" style="text;html=1;align=center;verticalAlign=middle;resizable=0;points=[];autosize=1;strokeColor=none;fillColor=none;" parent="47" vertex="1">
          <mxGeometry x="435" y="50" width="100" height="30" as="geometry" />
        </mxCell>
        <mxCell id="137" style="edgeStyle=orthogonalEdgeStyle;rounded=0;jumpStyle=gap;html=1;entryX=0;entryY=0.5;entryDx=0;entryDy=0;entryPerimeter=0;" parent="45" source="135" target="93" edge="1">
          <mxGeometry relative="1" as="geometry" />
        </mxCell>
        <mxCell id="138" value="" style="edgeStyle=orthogonalEdgeStyle;rounded=0;jumpStyle=gap;html=1;" parent="45" source="93" target="94" edge="1">
          <mxGeometry relative="1" as="geometry" />
        </mxCell>
        <mxCell id="155" style="edgeStyle=orthogonalEdgeStyle;rounded=0;jumpStyle=gap;html=1;entryX=0;entryY=0.5;entryDx=0;entryDy=0;entryPerimeter=0;" parent="45" source="94" target="95" edge="1">
          <mxGeometry relative="1" as="geometry" />
        </mxCell>
        <mxCell id="151" value="Выдача расходников" style="swimlane;html=1;childLayout=stackLayout;resizeParent=1;resizeParentMax=0;horizontal=0;startSize=20;horizontalStack=0;whiteSpace=wrap;strokeColor=default;" parent="1" vertex="1">
          <mxGeometry x="81" y="1080" width="820" height="280" as="geometry" />
        </mxCell>
        <mxCell id="152" value="Исполнитель" style="swimlane;html=1;startSize=20;horizontal=0;strokeColor=default;" parent="151" vertex="1">
          <mxGeometry x="20" width="800" height="120" as="geometry" />
        </mxCell>
        <mxCell id="164" value="" style="points=[[0.145,0.145,0],[0.5,0,0],[0.855,0.145,0],[1,0.5,0],[0.855,0.855,0],[0.5,1,0],[0.145,0.855,0],[0,0.5,0]];shape=mxgraph.bpmn.event;html=1;verticalLabelPosition=bottom;labelBackgroundColor=#ffffff;verticalAlign=top;align=center;perimeter=ellipsePerimeter;outlineConnect=0;aspect=fixed;outline=standard;symbol=general;strokeColor=default;" parent="152" vertex="1">
          <mxGeometry x="60" y="35" width="50" height="50" as="geometry" />
        </mxCell>
        <mxCell id="165" value="Получение&lt;br&gt;исполнителем заказа" style="text;html=1;align=center;verticalAlign=middle;resizable=0;points=[];autosize=1;strokeColor=none;fillColor=none;" parent="152" vertex="1">
          <mxGeometry x="10" width="150" height="40" as="geometry" />
        </mxCell>
        <mxCell id="172" value="Получение расходников исполнителем" style="points=[[0.25,0,0],[0.5,0,0],[0.75,0,0],[1,0.25,0],[1,0.5,0],[1,0.75,0],[0.75,1,0],[0.5,1,0],[0.25,1,0],[0,0.75,0],[0,0.5,0],[0,0.25,0]];shape=mxgraph.bpmn.task;whiteSpace=wrap;rectStyle=rounded;size=10;html=1;taskMarker=manual;strokeColor=default;" parent="152" vertex="1">
          <mxGeometry x="390" y="20" width="120" height="80" as="geometry" />
        </mxCell>
        <mxCell id="171" style="edgeStyle=orthogonalEdgeStyle;rounded=0;jumpStyle=gap;html=1;entryX=0.5;entryY=0;entryDx=0;entryDy=0;entryPerimeter=0;" parent="151" source="164" target="166" edge="1">
          <mxGeometry relative="1" as="geometry" />
        </mxCell>
        <mxCell id="173" value="" style="edgeStyle=orthogonalEdgeStyle;rounded=0;jumpStyle=gap;html=1;" parent="151" source="169" target="172" edge="1">
          <mxGeometry relative="1" as="geometry" />
        </mxCell>
        <mxCell id="175" style="edgeStyle=orthogonalEdgeStyle;rounded=0;jumpStyle=gap;html=1;entryX=0;entryY=0.5;entryDx=0;entryDy=0;entryPerimeter=0;" parent="151" source="172" target="174" edge="1">
          <mxGeometry relative="1" as="geometry" />
        </mxCell>
        <mxCell id="153" value="Отдел расходников" style="swimlane;html=1;startSize=20;horizontal=0;strokeColor=default;" parent="151" vertex="1">
          <mxGeometry x="20" y="120" width="800" height="160" as="geometry">
            <mxRectangle x="20" y="120" width="1010" height="30" as="alternateBounds" />
          </mxGeometry>
        </mxCell>
        <mxCell id="183" value="" style="edgeStyle=orthogonalEdgeStyle;rounded=0;jumpStyle=gap;html=1;" parent="153" source="166" edge="1">
          <mxGeometry relative="1" as="geometry">
            <mxPoint x="190" y="80" as="targetPoint" />
          </mxGeometry>
        </mxCell>
        <mxCell id="166" value="Создание заявки на расходники для заказа" style="points=[[0.25,0,0],[0.5,0,0],[0.75,0,0],[1,0.25,0],[1,0.5,0],[1,0.75,0],[0.75,1,0],[0.5,1,0],[0.25,1,0],[0,0.75,0],[0,0.5,0],[0,0.25,0]];shape=mxgraph.bpmn.task;whiteSpace=wrap;rectStyle=rounded;size=10;html=1;taskMarker=abstract;strokeColor=default;" parent="153" vertex="1">
          <mxGeometry x="25" y="40" width="120" height="80" as="geometry" />
        </mxCell>
        <mxCell id="169" value="Сбор расходников" style="points=[[0.25,0,0],[0.5,0,0],[0.75,0,0],[1,0.25,0],[1,0.5,0],[1,0.75,0],[0.75,1,0],[0.5,1,0],[0.25,1,0],[0,0.75,0],[0,0.5,0],[0,0.25,0]];shape=mxgraph.bpmn.task;whiteSpace=wrap;rectStyle=rounded;size=10;html=1;taskMarker=manual;strokeColor=default;" parent="153" vertex="1">
          <mxGeometry x="390" y="40" width="120" height="80" as="geometry" />
        </mxCell>
        <mxCell id="178" value="" style="edgeStyle=orthogonalEdgeStyle;rounded=0;jumpStyle=gap;html=1;" parent="153" source="174" target="177" edge="1">
          <mxGeometry relative="1" as="geometry" />
        </mxCell>
        <mxCell id="174" value="Перевод статуса выдачи в состояние &quot;выполнено&quot;" style="points=[[0.25,0,0],[0.5,0,0],[0.75,0,0],[1,0.25,0],[1,0.5,0],[1,0.75,0],[0.75,1,0],[0.5,1,0],[0.25,1,0],[0,0.75,0],[0,0.5,0],[0,0.25,0]];shape=mxgraph.bpmn.task;whiteSpace=wrap;rectStyle=rounded;size=10;html=1;taskMarker=user;strokeColor=default;" parent="153" vertex="1">
          <mxGeometry x="550" y="40" width="120" height="80" as="geometry" />
        </mxCell>
        <mxCell id="177" value="" style="points=[[0.145,0.145,0],[0.5,0,0],[0.855,0.145,0],[1,0.5,0],[0.855,0.855,0],[0.5,1,0],[0.145,0.855,0],[0,0.5,0]];shape=mxgraph.bpmn.event;html=1;verticalLabelPosition=bottom;labelBackgroundColor=#ffffff;verticalAlign=top;align=center;perimeter=ellipsePerimeter;outlineConnect=0;aspect=fixed;outline=end;symbol=terminate2;strokeColor=default;" parent="153" vertex="1">
          <mxGeometry x="710" y="55" width="50" height="50" as="geometry" />
        </mxCell>
        <mxCell id="179" value="Расходники&lt;br&gt;выданы" style="text;html=1;align=center;verticalAlign=middle;resizable=0;points=[];autosize=1;strokeColor=none;fillColor=none;" parent="153" vertex="1">
          <mxGeometry x="690" y="105" width="90" height="40" as="geometry" />
        </mxCell>
        <mxCell id="184" value="Передача&lt;br&gt;информации о заказе&lt;br&gt;подрядчику" style="text;html=1;align=center;verticalAlign=middle;resizable=0;points=[];autosize=1;strokeColor=none;fillColor=none;" parent="153" vertex="1">
          <mxGeometry x="140" y="-5" width="150" height="60" as="geometry" />
        </mxCell>
        <mxCell id="186" value="" style="points=[[0.145,0.145,0],[0.5,0,0],[0.855,0.145,0],[1,0.5,0],[0.855,0.855,0],[0.5,1,0],[0.145,0.855,0],[0,0.5,0]];shape=mxgraph.bpmn.event;html=1;verticalLabelPosition=bottom;labelBackgroundColor=#ffffff;verticalAlign=top;align=center;perimeter=ellipsePerimeter;outlineConnect=0;aspect=fixed;outline=throwing;symbol=message;strokeColor=default;" parent="153" vertex="1">
          <mxGeometry x="190" y="55" width="50" height="50" as="geometry" />
        </mxCell>
        <mxCell id="190" value="" style="edgeStyle=orthogonalEdgeStyle;rounded=0;jumpStyle=gap;html=1;" parent="153" source="187" target="169" edge="1">
          <mxGeometry relative="1" as="geometry" />
        </mxCell>
        <mxCell id="187" value="" style="points=[[0.145,0.145,0],[0.5,0,0],[0.855,0.145,0],[1,0.5,0],[0.855,0.855,0],[0.5,1,0],[0.145,0.855,0],[0,0.5,0]];shape=mxgraph.bpmn.event;html=1;verticalLabelPosition=bottom;labelBackgroundColor=#ffffff;verticalAlign=top;align=center;perimeter=ellipsePerimeter;outlineConnect=0;aspect=fixed;outline=catching;symbol=message;strokeColor=default;" parent="153" vertex="1">
          <mxGeometry x="300" y="55" width="50" height="50" as="geometry" />
        </mxCell>
        <mxCell id="189" value="Получение&lt;br&gt;печенья&amp;nbsp;" style="text;html=1;align=center;verticalAlign=middle;resizable=0;points=[];autosize=1;strokeColor=none;fillColor=none;" parent="153" vertex="1">
          <mxGeometry x="280" y="5" width="90" height="40" as="geometry" />
        </mxCell>
        <mxCell id="185" value="" style="dashed=1;dashPattern=8 4;endArrow=blockThin;endFill=1;startArrow=oval;startFill=0;endSize=6;startSize=4;html=1;rounded=0;jumpStyle=gap;exitX=0.5;exitY=1;exitDx=0;exitDy=0;exitPerimeter=0;" parent="1" edge="1">
          <mxGeometry width="160" relative="1" as="geometry">
            <mxPoint x="316" y="1305" as="sourcePoint" />
            <mxPoint x="316" y="1400" as="targetPoint" />
          </mxGeometry>
        </mxCell>
        <mxCell id="188" value="" style="dashed=1;dashPattern=8 4;endArrow=blockThin;endFill=1;startArrow=oval;startFill=0;endSize=6;startSize=4;html=1;rounded=0;jumpStyle=gap;entryX=0.5;entryY=1;entryDx=0;entryDy=0;entryPerimeter=0;" parent="1" target="187" edge="1">
          <mxGeometry width="160" relative="1" as="geometry">
            <mxPoint x="426" y="1400" as="sourcePoint" />
            <mxPoint x="651" y="1367.5" as="targetPoint" />
          </mxGeometry>
        </mxCell>
        <mxCell id="211" value="Изучение качества работы" style="swimlane;html=1;childLayout=stackLayout;resizeParent=1;resizeParentMax=0;horizontal=0;startSize=20;horizontalStack=0;whiteSpace=wrap;strokeColor=default;" parent="1" vertex="1">
          <mxGeometry x="80" y="1840" width="920" height="240" as="geometry" />
        </mxCell>
        <mxCell id="212" value="Отдел проверки качества" style="swimlane;html=1;startSize=20;horizontal=0;strokeColor=default;" parent="211" vertex="1">
          <mxGeometry x="20" width="900" height="240" as="geometry" />
        </mxCell>
        <mxCell id="232" value="" style="edgeStyle=orthogonalEdgeStyle;rounded=0;jumpStyle=gap;html=1;exitX=1;exitY=0.5;exitDx=0;exitDy=0;exitPerimeter=0;" parent="212" source="5nUSWNSxmODM9DKenBCi-553" target="222" edge="1">
          <mxGeometry relative="1" as="geometry">
            <mxPoint x="120" y="100" as="sourcePoint" />
          </mxGeometry>
        </mxCell>
        <mxCell id="220" value="Заказ был отменён&lt;div&gt;или провален&lt;/div&gt;" style="text;html=1;align=center;verticalAlign=middle;resizable=0;points=[];autosize=1;strokeColor=none;fillColor=none;" parent="212" vertex="1">
          <mxGeometry x="20" y="145" width="130" height="40" as="geometry" />
        </mxCell>
        <mxCell id="224" value="" style="edgeStyle=orthogonalEdgeStyle;rounded=0;jumpStyle=gap;html=1;" parent="212" source="222" target="223" edge="1">
          <mxGeometry relative="1" as="geometry" />
        </mxCell>
        <mxCell id="222" value="Проведение проверки заказа" style="points=[[0.25,0,0],[0.5,0,0],[0.75,0,0],[1,0.25,0],[1,0.5,0],[1,0.75,0],[0.75,1,0],[0.5,1,0],[0.25,1,0],[0,0.75,0],[0,0.5,0],[0,0.25,0]];shape=mxgraph.bpmn.task;whiteSpace=wrap;rectStyle=rounded;size=10;html=1;taskMarker=user;strokeColor=default;" parent="212" vertex="1">
          <mxGeometry x="155" y="80" width="120" height="80" as="geometry" />
        </mxCell>
        <mxCell id="226" value="" style="edgeStyle=orthogonalEdgeStyle;rounded=0;jumpStyle=gap;html=1;" parent="212" source="223" target="225" edge="1">
          <mxGeometry relative="1" as="geometry" />
        </mxCell>
        <mxCell id="229" style="edgeStyle=orthogonalEdgeStyle;rounded=0;jumpStyle=gap;html=1;" parent="212" source="223" target="227" edge="1">
          <mxGeometry relative="1" as="geometry">
            <Array as="points">
              <mxPoint x="335" y="200" />
              <mxPoint x="585" y="200" />
            </Array>
          </mxGeometry>
        </mxCell>
        <mxCell id="223" value="" style="points=[[0.25,0.25,0],[0.5,0,0],[0.75,0.25,0],[1,0.5,0],[0.75,0.75,0],[0.5,1,0],[0.25,0.75,0],[0,0.5,0]];shape=mxgraph.bpmn.gateway2;html=1;verticalLabelPosition=bottom;labelBackgroundColor=#ffffff;verticalAlign=top;align=center;perimeter=rhombusPerimeter;outlineConnect=0;outline=none;symbol=none;gwType=exclusive;strokeColor=default;" parent="212" vertex="1">
          <mxGeometry x="310" y="95" width="50" height="50" as="geometry" />
        </mxCell>
        <mxCell id="228" value="" style="edgeStyle=orthogonalEdgeStyle;rounded=0;jumpStyle=gap;html=1;" parent="212" source="225" target="227" edge="1">
          <mxGeometry relative="1" as="geometry" />
        </mxCell>
        <mxCell id="225" value="Звонок клиенту" style="points=[[0.25,0,0],[0.5,0,0],[0.75,0,0],[1,0.25,0],[1,0.5,0],[1,0.75,0],[0.75,1,0],[0.5,1,0],[0.25,1,0],[0,0.75,0],[0,0.5,0],[0,0.25,0]];shape=mxgraph.bpmn.task;whiteSpace=wrap;rectStyle=rounded;size=10;html=1;taskMarker=manual;strokeColor=default;" parent="212" vertex="1">
          <mxGeometry x="400" y="80" width="120" height="80" as="geometry" />
        </mxCell>
        <mxCell id="231" value="" style="edgeStyle=orthogonalEdgeStyle;rounded=0;jumpStyle=gap;html=1;" parent="212" source="227" target="230" edge="1">
          <mxGeometry relative="1" as="geometry" />
        </mxCell>
        <mxCell id="227" value="" style="points=[[0.25,0.25,0],[0.5,0,0],[0.75,0.25,0],[1,0.5,0],[0.75,0.75,0],[0.5,1,0],[0.25,0.75,0],[0,0.5,0]];shape=mxgraph.bpmn.gateway2;html=1;verticalLabelPosition=bottom;labelBackgroundColor=#ffffff;verticalAlign=top;align=center;perimeter=rhombusPerimeter;outlineConnect=0;outline=none;symbol=none;gwType=exclusive;strokeColor=default;" parent="212" vertex="1">
          <mxGeometry x="560" y="95" width="50" height="50" as="geometry" />
        </mxCell>
        <mxCell id="234" value="" style="edgeStyle=orthogonalEdgeStyle;rounded=0;jumpStyle=gap;html=1;" parent="212" source="230" target="233" edge="1">
          <mxGeometry relative="1" as="geometry" />
        </mxCell>
        <mxCell id="230" value="Заполнение формы с результатом проверки качества" style="points=[[0.25,0,0],[0.5,0,0],[0.75,0,0],[1,0.25,0],[1,0.5,0],[1,0.75,0],[0.75,1,0],[0.5,1,0],[0.25,1,0],[0,0.75,0],[0,0.5,0],[0,0.25,0]];shape=mxgraph.bpmn.task;whiteSpace=wrap;rectStyle=rounded;size=10;html=1;taskMarker=user;strokeColor=default;" parent="212" vertex="1">
          <mxGeometry x="650" y="80" width="120" height="80" as="geometry" />
        </mxCell>
        <mxCell id="233" value="" style="points=[[0.145,0.145,0],[0.5,0,0],[0.855,0.145,0],[1,0.5,0],[0.855,0.855,0],[0.5,1,0],[0.145,0.855,0],[0,0.5,0]];shape=mxgraph.bpmn.event;html=1;verticalLabelPosition=bottom;labelBackgroundColor=#ffffff;verticalAlign=top;align=center;perimeter=ellipsePerimeter;outlineConnect=0;aspect=fixed;outline=end;symbol=terminate2;strokeColor=default;" parent="212" vertex="1">
          <mxGeometry x="810" y="95" width="50" height="50" as="geometry" />
        </mxCell>
        <mxCell id="235" value="Получены гипотезы&lt;br&gt;для улучшения&lt;br&gt;работы бизнеса" style="text;html=1;align=center;verticalAlign=middle;resizable=0;points=[];autosize=1;strokeColor=none;fillColor=none;" parent="212" vertex="1">
          <mxGeometry x="765" y="145" width="140" height="60" as="geometry" />
        </mxCell>
        <mxCell id="5nUSWNSxmODM9DKenBCi-553" value="" style="points=[[0.145,0.145,0],[0.5,0,0],[0.855,0.145,0],[1,0.5,0],[0.855,0.855,0],[0.5,1,0],[0.145,0.855,0],[0,0.5,0]];shape=mxgraph.bpmn.event;html=1;verticalLabelPosition=bottom;labelBackgroundColor=#ffffff;verticalAlign=top;align=center;perimeter=ellipsePerimeter;outlineConnect=0;aspect=fixed;outline=standard;symbol=message;" vertex="1" parent="212">
          <mxGeometry x="60" y="95" width="50" height="50" as="geometry" />
        </mxCell>
        <mxCell id="215" value="Подрядчик" style="swimlane;html=1;childLayout=stackLayout;resizeParent=1;resizeParentMax=0;startSize=20;whiteSpace=wrap;strokeColor=default;" parent="1" vertex="1" collapsed="1">
          <mxGeometry x="301" y="1400" width="140" height="30" as="geometry">
            <mxRectangle x="260" y="1120" width="40" height="480" as="alternateBounds" />
          </mxGeometry>
        </mxCell>
        <mxCell id="236" value="Списание оплаты у клиентов" style="swimlane;html=1;childLayout=stackLayout;resizeParent=1;resizeParentMax=0;horizontal=0;startSize=20;horizontalStack=0;whiteSpace=wrap;strokeColor=default;" parent="1" vertex="1">
          <mxGeometry x="80" y="2160" width="760" height="240" as="geometry" />
        </mxCell>
        <mxCell id="237" value="Клиент" style="swimlane;html=1;startSize=20;horizontal=0;strokeColor=default;" parent="236" vertex="1">
          <mxGeometry x="20" width="740" height="240" as="geometry" />
        </mxCell>
        <mxCell id="245" value="" style="edgeStyle=none;html=1;" parent="237" source="242" target="244" edge="1">
          <mxGeometry relative="1" as="geometry" />
        </mxCell>
        <mxCell id="242" value="" style="points=[[0.145,0.145,0],[0.5,0,0],[0.855,0.145,0],[1,0.5,0],[0.855,0.855,0],[0.5,1,0],[0.145,0.855,0],[0,0.5,0]];shape=mxgraph.bpmn.event;html=1;verticalLabelPosition=bottom;labelBackgroundColor=#ffffff;verticalAlign=top;align=center;perimeter=ellipsePerimeter;outlineConnect=0;aspect=fixed;outline=standard;symbol=timer;" parent="237" vertex="1">
          <mxGeometry x="60" y="95" width="50" height="50" as="geometry" />
        </mxCell>
        <mxCell id="243" value="Воскресенье" style="text;html=1;align=center;verticalAlign=middle;resizable=0;points=[];autosize=1;strokeColor=none;fillColor=none;" parent="237" vertex="1">
          <mxGeometry x="35" y="145" width="100" height="30" as="geometry" />
        </mxCell>
        <mxCell id="248" value="" style="edgeStyle=none;html=1;" parent="237" source="244" target="247" edge="1">
          <mxGeometry relative="1" as="geometry" />
        </mxCell>
        <mxCell id="244" value="Выставление инвойса" style="points=[[0.25,0,0],[0.5,0,0],[0.75,0,0],[1,0.25,0],[1,0.5,0],[1,0.75,0],[0.75,1,0],[0.5,1,0],[0.25,1,0],[0,0.75,0],[0,0.5,0],[0,0.25,0]];shape=mxgraph.bpmn.task;whiteSpace=wrap;rectStyle=rounded;size=10;html=1;taskMarker=abstract;" parent="237" vertex="1">
          <mxGeometry x="150" y="80" width="120" height="80" as="geometry" />
        </mxCell>
        <mxCell id="247" value="" style="points=[[0.145,0.145,0],[0.5,0,0],[0.855,0.145,0],[1,0.5,0],[0.855,0.855,0],[0.5,1,0],[0.145,0.855,0],[0,0.5,0]];shape=mxgraph.bpmn.event;html=1;verticalLabelPosition=bottom;labelBackgroundColor=#ffffff;verticalAlign=top;align=center;perimeter=ellipsePerimeter;outlineConnect=0;aspect=fixed;outline=throwing;symbol=message;" parent="237" vertex="1">
          <mxGeometry x="310" y="95" width="50" height="50" as="geometry" />
        </mxCell>
        <mxCell id="249" value="Отправка информации&lt;br&gt;о транзакции" style="text;html=1;align=center;verticalAlign=middle;resizable=0;points=[];autosize=1;strokeColor=none;fillColor=none;" parent="237" vertex="1">
          <mxGeometry x="260" y="53" width="150" height="40" as="geometry" />
        </mxCell>
        <mxCell id="250" value="" style="dashed=1;dashPattern=8 4;endArrow=blockThin;endFill=1;startArrow=oval;startFill=0;endSize=6;startSize=4;html=1;rounded=0;jumpStyle=gap;exitX=0.5;exitY=1;exitDx=0;exitDy=0;exitPerimeter=0;entryX=0.171;entryY=0.014;entryDx=0;entryDy=0;entryPerimeter=0;" parent="237" target="246" edge="1">
          <mxGeometry width="160" relative="1" as="geometry">
            <mxPoint x="334.5" y="145" as="sourcePoint" />
            <mxPoint x="335" y="259" as="targetPoint" />
          </mxGeometry>
        </mxCell>
        <mxCell id="255" value="" style="edgeStyle=none;html=1;" parent="237" source="252" target="254" edge="1">
          <mxGeometry relative="1" as="geometry" />
        </mxCell>
        <mxCell id="252" value="" style="points=[[0.145,0.145,0],[0.5,0,0],[0.855,0.145,0],[1,0.5,0],[0.855,0.855,0],[0.5,1,0],[0.145,0.855,0],[0,0.5,0]];shape=mxgraph.bpmn.event;html=1;verticalLabelPosition=bottom;labelBackgroundColor=#ffffff;verticalAlign=top;align=center;perimeter=ellipsePerimeter;outlineConnect=0;aspect=fixed;outline=catching;symbol=message;strokeColor=default;" parent="237" vertex="1">
          <mxGeometry x="400" y="95" width="50" height="50" as="geometry" />
        </mxCell>
        <mxCell id="253" value="Получение информации&lt;br&gt;о транзакции" style="text;html=1;align=center;verticalAlign=middle;resizable=0;points=[];autosize=1;strokeColor=none;fillColor=none;" parent="237" vertex="1">
          <mxGeometry x="430" y="149" width="160" height="40" as="geometry" />
        </mxCell>
        <mxCell id="254" value="" style="points=[[0.145,0.145,0],[0.5,0,0],[0.855,0.145,0],[1,0.5,0],[0.855,0.855,0],[0.5,1,0],[0.145,0.855,0],[0,0.5,0]];shape=mxgraph.bpmn.event;html=1;verticalLabelPosition=bottom;labelBackgroundColor=#ffffff;verticalAlign=top;align=center;perimeter=ellipsePerimeter;outlineConnect=0;aspect=fixed;outline=end;symbol=terminate2;fillColor=none;" parent="237" vertex="1">
          <mxGeometry x="610" y="95" width="50" height="50" as="geometry" />
        </mxCell>
        <mxCell id="256" value="Проведено списание средств" style="text;html=1;align=center;verticalAlign=middle;resizable=0;points=[];autosize=1;strokeColor=none;fillColor=none;" parent="237" vertex="1">
          <mxGeometry x="540" y="58" width="190" height="30" as="geometry" />
        </mxCell>
        <mxCell id="246" value="Платёжный сервис" style="swimlane;html=1;childLayout=stackLayout;resizeParent=1;resizeParentMax=0;startSize=20;whiteSpace=wrap;strokeColor=default;" parent="1" vertex="1" collapsed="1">
          <mxGeometry x="410" y="2439" width="150" height="30" as="geometry">
            <mxRectangle x="260" y="1120" width="40" height="480" as="alternateBounds" />
          </mxGeometry>
        </mxCell>
        <mxCell id="251" value="" style="dashed=1;dashPattern=8 4;endArrow=blockThin;endFill=1;startArrow=oval;startFill=0;endSize=6;startSize=4;html=1;rounded=0;jumpStyle=gap;exitX=0.767;exitY=0;exitDx=0;exitDy=0;entryX=0.5;entryY=1;entryDx=0;entryDy=0;entryPerimeter=0;exitPerimeter=0;" parent="1" source="246" target="252" edge="1">
          <mxGeometry width="160" relative="1" as="geometry">
            <mxPoint x="525" y="2429" as="sourcePoint" />
            <mxPoint x="523" y="2309" as="targetPoint" />
          </mxGeometry>
        </mxCell>
        <mxCell id="257" value="Начислеение выплат исполнителям" style="swimlane;html=1;childLayout=stackLayout;resizeParent=1;resizeParentMax=0;horizontal=0;startSize=20;horizontalStack=0;whiteSpace=wrap;strokeColor=default;" parent="1" vertex="1">
          <mxGeometry x="81" y="2560" width="920" height="280" as="geometry" />
        </mxCell>
        <mxCell id="258" value="Исполнитель" style="swimlane;html=1;startSize=20;horizontal=0;strokeColor=default;" parent="257" vertex="1">
          <mxGeometry x="20" width="900" height="280" as="geometry" />
        </mxCell>
        <mxCell id="259" value="" style="edgeStyle=none;html=1;" parent="258" source="260" target="263" edge="1">
          <mxGeometry relative="1" as="geometry" />
        </mxCell>
        <mxCell id="260" value="" style="points=[[0.145,0.145,0],[0.5,0,0],[0.855,0.145,0],[1,0.5,0],[0.855,0.855,0],[0.5,1,0],[0.145,0.855,0],[0,0.5,0]];shape=mxgraph.bpmn.event;html=1;verticalLabelPosition=bottom;labelBackgroundColor=#ffffff;verticalAlign=top;align=center;perimeter=ellipsePerimeter;outlineConnect=0;aspect=fixed;outline=standard;symbol=timer;" parent="258" vertex="1">
          <mxGeometry x="60" y="95" width="50" height="50" as="geometry" />
        </mxCell>
        <mxCell id="261" value="Последний день&lt;br&gt;месяца" style="text;html=1;align=center;verticalAlign=middle;resizable=0;points=[];autosize=1;strokeColor=none;fillColor=none;" parent="258" vertex="1">
          <mxGeometry x="25" y="149" width="120" height="40" as="geometry" />
        </mxCell>
        <mxCell id="262" value="" style="edgeStyle=none;html=1;" parent="258" target="264" edge="1">
          <mxGeometry relative="1" as="geometry">
            <mxPoint x="430" y="120" as="sourcePoint" />
          </mxGeometry>
        </mxCell>
        <mxCell id="275" value="" style="edgeStyle=none;html=1;" parent="258" source="263" target="274" edge="1">
          <mxGeometry relative="1" as="geometry" />
        </mxCell>
        <mxCell id="263" value="Расчёт выплат" style="points=[[0.25,0,0],[0.5,0,0],[0.75,0,0],[1,0.25,0],[1,0.5,0],[1,0.75,0],[0.75,1,0],[0.5,1,0],[0.25,1,0],[0,0.75,0],[0,0.5,0],[0,0.25,0]];shape=mxgraph.bpmn.task;whiteSpace=wrap;rectStyle=rounded;size=10;html=1;taskMarker=abstract;" parent="258" vertex="1">
          <mxGeometry x="150" y="80" width="120" height="80" as="geometry" />
        </mxCell>
        <mxCell id="264" value="" style="points=[[0.145,0.145,0],[0.5,0,0],[0.855,0.145,0],[1,0.5,0],[0.855,0.855,0],[0.5,1,0],[0.145,0.855,0],[0,0.5,0]];shape=mxgraph.bpmn.event;html=1;verticalLabelPosition=bottom;labelBackgroundColor=#ffffff;verticalAlign=top;align=center;perimeter=ellipsePerimeter;outlineConnect=0;aspect=fixed;outline=throwing;symbol=message;" parent="258" vertex="1">
          <mxGeometry x="470" y="95" width="50" height="50" as="geometry" />
        </mxCell>
        <mxCell id="265" value="Отправка информации&lt;br&gt;о транзакции" style="text;html=1;align=center;verticalAlign=middle;resizable=0;points=[];autosize=1;strokeColor=none;fillColor=none;" parent="258" vertex="1">
          <mxGeometry x="420" y="53" width="150" height="40" as="geometry" />
        </mxCell>
        <mxCell id="266" value="" style="dashed=1;dashPattern=8 4;endArrow=blockThin;endFill=1;startArrow=oval;startFill=0;endSize=6;startSize=4;html=1;rounded=0;jumpStyle=gap;exitX=0.5;exitY=1;exitDx=0;exitDy=0;exitPerimeter=0;entryX=0.171;entryY=0.014;entryDx=0;entryDy=0;entryPerimeter=0;" parent="258" target="272" edge="1">
          <mxGeometry width="160" relative="1" as="geometry">
            <mxPoint x="494.5" y="145" as="sourcePoint" />
            <mxPoint x="495" y="259" as="targetPoint" />
          </mxGeometry>
        </mxCell>
        <mxCell id="267" value="" style="edgeStyle=none;html=1;" parent="258" source="268" target="270" edge="1">
          <mxGeometry relative="1" as="geometry" />
        </mxCell>
        <mxCell id="268" value="" style="points=[[0.145,0.145,0],[0.5,0,0],[0.855,0.145,0],[1,0.5,0],[0.855,0.855,0],[0.5,1,0],[0.145,0.855,0],[0,0.5,0]];shape=mxgraph.bpmn.event;html=1;verticalLabelPosition=bottom;labelBackgroundColor=#ffffff;verticalAlign=top;align=center;perimeter=ellipsePerimeter;outlineConnect=0;aspect=fixed;outline=catching;symbol=message;strokeColor=default;" parent="258" vertex="1">
          <mxGeometry x="560" y="95" width="50" height="50" as="geometry" />
        </mxCell>
        <mxCell id="269" value="Получение информации&lt;br&gt;о транзакции" style="text;html=1;align=center;verticalAlign=middle;resizable=0;points=[];autosize=1;strokeColor=none;fillColor=none;" parent="258" vertex="1">
          <mxGeometry x="590" y="149" width="160" height="40" as="geometry" />
        </mxCell>
        <mxCell id="270" value="" style="points=[[0.145,0.145,0],[0.5,0,0],[0.855,0.145,0],[1,0.5,0],[0.855,0.855,0],[0.5,1,0],[0.145,0.855,0],[0,0.5,0]];shape=mxgraph.bpmn.event;html=1;verticalLabelPosition=bottom;labelBackgroundColor=#ffffff;verticalAlign=top;align=center;perimeter=ellipsePerimeter;outlineConnect=0;aspect=fixed;outline=end;symbol=terminate2;fillColor=none;" parent="258" vertex="1">
          <mxGeometry x="770" y="95" width="50" height="50" as="geometry" />
        </mxCell>
        <mxCell id="271" value="Проведено начисление средств" style="text;html=1;align=center;verticalAlign=middle;resizable=0;points=[];autosize=1;strokeColor=none;fillColor=none;" parent="258" vertex="1">
          <mxGeometry x="695" y="58" width="200" height="30" as="geometry" />
        </mxCell>
        <mxCell id="274" value="Выставление инвойса" style="points=[[0.25,0,0],[0.5,0,0],[0.75,0,0],[1,0.25,0],[1,0.5,0],[1,0.75,0],[0.75,1,0],[0.5,1,0],[0.25,1,0],[0,0.75,0],[0,0.5,0],[0,0.25,0]];shape=mxgraph.bpmn.task;whiteSpace=wrap;rectStyle=rounded;size=10;html=1;taskMarker=abstract;" parent="258" vertex="1">
          <mxGeometry x="310" y="80" width="120" height="80" as="geometry" />
        </mxCell>
        <mxCell id="272" value="Платёжный сервис" style="swimlane;html=1;childLayout=stackLayout;resizeParent=1;resizeParentMax=0;startSize=20;whiteSpace=wrap;strokeColor=default;" parent="1" vertex="1" collapsed="1">
          <mxGeometry x="570" y="2879" width="150" height="30" as="geometry">
            <mxRectangle x="260" y="1120" width="40" height="480" as="alternateBounds" />
          </mxGeometry>
        </mxCell>
        <mxCell id="273" value="" style="dashed=1;dashPattern=8 4;endArrow=blockThin;endFill=1;startArrow=oval;startFill=0;endSize=6;startSize=4;html=1;rounded=0;jumpStyle=gap;exitX=0.767;exitY=0;exitDx=0;exitDy=0;entryX=0.5;entryY=1;entryDx=0;entryDy=0;entryPerimeter=0;exitPerimeter=0;" parent="1" source="272" target="268" edge="1">
          <mxGeometry width="160" relative="1" as="geometry">
            <mxPoint x="685" y="2828" as="sourcePoint" />
            <mxPoint x="683" y="2708" as="targetPoint" />
          </mxGeometry>
        </mxCell>
        <mxCell id="276" value="Просмотр заказов" style="swimlane;html=1;childLayout=stackLayout;resizeParent=1;resizeParentMax=0;horizontal=0;startSize=20;horizontalStack=0;whiteSpace=wrap;fillColor=none;" parent="1" vertex="1">
          <mxGeometry x="80" y="2999" width="590" height="160" as="geometry" />
        </mxCell>
        <mxCell id="277" value="Клиент" style="swimlane;html=1;startSize=20;horizontal=0;fillColor=none;" parent="276" vertex="1">
          <mxGeometry x="20" width="570" height="160" as="geometry" />
        </mxCell>
        <mxCell id="5nUSWNSxmODM9DKenBCi-283" value="" style="edgeStyle=orthogonalEdgeStyle;rounded=0;orthogonalLoop=1;jettySize=auto;html=1;" edge="1" parent="277" source="280" target="5nUSWNSxmODM9DKenBCi-282">
          <mxGeometry relative="1" as="geometry" />
        </mxCell>
        <mxCell id="280" value="" style="points=[[0.145,0.145,0],[0.5,0,0],[0.855,0.145,0],[1,0.5,0],[0.855,0.855,0],[0.5,1,0],[0.145,0.855,0],[0,0.5,0]];shape=mxgraph.bpmn.event;html=1;verticalLabelPosition=bottom;labelBackgroundColor=#ffffff;verticalAlign=top;align=center;perimeter=ellipsePerimeter;outlineConnect=0;aspect=fixed;outline=standard;symbol=general;fillColor=none;" parent="277" vertex="1">
          <mxGeometry x="60" y="55" width="50" height="50" as="geometry" />
        </mxCell>
        <mxCell id="281" value="Появление&lt;div&gt;потребности&lt;br&gt;просмотра &lt;span style=&quot;background-color: transparent; color: light-dark(rgb(0, 0, 0), rgb(255, 255, 255));&quot;&gt;заказов&lt;/span&gt;&lt;/div&gt;" style="text;html=1;align=center;verticalAlign=middle;resizable=0;points=[];autosize=1;strokeColor=none;fillColor=none;" parent="277" vertex="1">
          <mxGeometry x="20" y="100" width="130" height="60" as="geometry" />
        </mxCell>
        <mxCell id="5nUSWNSxmODM9DKenBCi-313" value="" style="edgeStyle=orthogonalEdgeStyle;rounded=0;orthogonalLoop=1;jettySize=auto;html=1;" edge="1" parent="277" source="5nUSWNSxmODM9DKenBCi-282" target="5nUSWNSxmODM9DKenBCi-312">
          <mxGeometry relative="1" as="geometry" />
        </mxCell>
        <mxCell id="5nUSWNSxmODM9DKenBCi-282" value="Получение истории заказов" style="points=[[0.25,0,0],[0.5,0,0],[0.75,0,0],[1,0.25,0],[1,0.5,0],[1,0.75,0],[0.75,1,0],[0.5,1,0],[0.25,1,0],[0,0.75,0],[0,0.5,0],[0,0.25,0]];shape=mxgraph.bpmn.task;whiteSpace=wrap;rectStyle=rounded;size=10;html=1;taskMarker=abstract;" vertex="1" parent="277">
          <mxGeometry x="150" y="40" width="120" height="80" as="geometry" />
        </mxCell>
        <mxCell id="5nUSWNSxmODM9DKenBCi-314" value="" style="edgeStyle=orthogonalEdgeStyle;rounded=0;orthogonalLoop=1;jettySize=auto;html=1;" edge="1" parent="277" source="5nUSWNSxmODM9DKenBCi-312" target="5nUSWNSxmODM9DKenBCi-284">
          <mxGeometry relative="1" as="geometry" />
        </mxCell>
        <mxCell id="5nUSWNSxmODM9DKenBCi-312" value="Получение текущих заказов" style="points=[[0.25,0,0],[0.5,0,0],[0.75,0,0],[1,0.25,0],[1,0.5,0],[1,0.75,0],[0.75,1,0],[0.5,1,0],[0.25,1,0],[0,0.75,0],[0,0.5,0],[0,0.25,0]];shape=mxgraph.bpmn.task;whiteSpace=wrap;rectStyle=rounded;size=10;html=1;taskMarker=abstract;" vertex="1" parent="277">
          <mxGeometry x="310" y="40" width="120" height="80" as="geometry" />
        </mxCell>
        <mxCell id="5nUSWNSxmODM9DKenBCi-284" value="" style="points=[[0.145,0.145,0],[0.5,0,0],[0.855,0.145,0],[1,0.5,0],[0.855,0.855,0],[0.5,1,0],[0.145,0.855,0],[0,0.5,0]];shape=mxgraph.bpmn.event;html=1;verticalLabelPosition=bottom;labelBackgroundColor=#ffffff;verticalAlign=top;align=center;perimeter=ellipsePerimeter;outlineConnect=0;aspect=fixed;outline=end;symbol=terminate2;fillColor=none;" vertex="1" parent="277">
          <mxGeometry x="474.5" y="55" width="50" height="50" as="geometry" />
        </mxCell>
        <mxCell id="5nUSWNSxmODM9DKenBCi-286" value="Информация&lt;div&gt;о заказах&lt;div&gt;получена&lt;/div&gt;&lt;/div&gt;" style="text;html=1;align=center;verticalAlign=middle;resizable=0;points=[];autosize=1;strokeColor=none;fillColor=none;" vertex="1" parent="277">
          <mxGeometry x="449.5" y="105" width="100" height="60" as="geometry" />
        </mxCell>
        <mxCell id="5nUSWNSxmODM9DKenBCi-315" value="Просмотр заказов" style="swimlane;html=1;childLayout=stackLayout;resizeParent=1;resizeParentMax=0;horizontal=0;startSize=20;horizontalStack=0;whiteSpace=wrap;fillColor=none;" vertex="1" parent="1">
          <mxGeometry x="80" y="3239" width="590" height="160" as="geometry" />
        </mxCell>
        <mxCell id="5nUSWNSxmODM9DKenBCi-316" value="Исполнитель" style="swimlane;html=1;startSize=20;horizontal=0;fillColor=none;" vertex="1" parent="5nUSWNSxmODM9DKenBCi-315">
          <mxGeometry x="20" width="570" height="160" as="geometry" />
        </mxCell>
        <mxCell id="5nUSWNSxmODM9DKenBCi-317" value="" style="edgeStyle=orthogonalEdgeStyle;rounded=0;orthogonalLoop=1;jettySize=auto;html=1;" edge="1" parent="5nUSWNSxmODM9DKenBCi-316" source="5nUSWNSxmODM9DKenBCi-318" target="5nUSWNSxmODM9DKenBCi-321">
          <mxGeometry relative="1" as="geometry" />
        </mxCell>
        <mxCell id="5nUSWNSxmODM9DKenBCi-318" value="" style="points=[[0.145,0.145,0],[0.5,0,0],[0.855,0.145,0],[1,0.5,0],[0.855,0.855,0],[0.5,1,0],[0.145,0.855,0],[0,0.5,0]];shape=mxgraph.bpmn.event;html=1;verticalLabelPosition=bottom;labelBackgroundColor=#ffffff;verticalAlign=top;align=center;perimeter=ellipsePerimeter;outlineConnect=0;aspect=fixed;outline=standard;symbol=general;fillColor=none;" vertex="1" parent="5nUSWNSxmODM9DKenBCi-316">
          <mxGeometry x="60" y="55" width="50" height="50" as="geometry" />
        </mxCell>
        <mxCell id="5nUSWNSxmODM9DKenBCi-319" value="Появление&lt;div&gt;потребности&lt;br&gt;просмотра &lt;span style=&quot;background-color: transparent; color: light-dark(rgb(0, 0, 0), rgb(255, 255, 255));&quot;&gt;заказов&lt;/span&gt;&lt;/div&gt;" style="text;html=1;align=center;verticalAlign=middle;resizable=0;points=[];autosize=1;strokeColor=none;fillColor=none;" vertex="1" parent="5nUSWNSxmODM9DKenBCi-316">
          <mxGeometry x="20" y="100" width="130" height="60" as="geometry" />
        </mxCell>
        <mxCell id="5nUSWNSxmODM9DKenBCi-320" value="" style="edgeStyle=orthogonalEdgeStyle;rounded=0;orthogonalLoop=1;jettySize=auto;html=1;" edge="1" parent="5nUSWNSxmODM9DKenBCi-316" source="5nUSWNSxmODM9DKenBCi-321" target="5nUSWNSxmODM9DKenBCi-323">
          <mxGeometry relative="1" as="geometry" />
        </mxCell>
        <mxCell id="5nUSWNSxmODM9DKenBCi-321" value="Получение истории заказов" style="points=[[0.25,0,0],[0.5,0,0],[0.75,0,0],[1,0.25,0],[1,0.5,0],[1,0.75,0],[0.75,1,0],[0.5,1,0],[0.25,1,0],[0,0.75,0],[0,0.5,0],[0,0.25,0]];shape=mxgraph.bpmn.task;whiteSpace=wrap;rectStyle=rounded;size=10;html=1;taskMarker=abstract;" vertex="1" parent="5nUSWNSxmODM9DKenBCi-316">
          <mxGeometry x="150" y="40" width="120" height="80" as="geometry" />
        </mxCell>
        <mxCell id="5nUSWNSxmODM9DKenBCi-322" value="" style="edgeStyle=orthogonalEdgeStyle;rounded=0;orthogonalLoop=1;jettySize=auto;html=1;" edge="1" parent="5nUSWNSxmODM9DKenBCi-316" source="5nUSWNSxmODM9DKenBCi-323" target="5nUSWNSxmODM9DKenBCi-324">
          <mxGeometry relative="1" as="geometry" />
        </mxCell>
        <mxCell id="5nUSWNSxmODM9DKenBCi-323" value="Получение текущих заказов" style="points=[[0.25,0,0],[0.5,0,0],[0.75,0,0],[1,0.25,0],[1,0.5,0],[1,0.75,0],[0.75,1,0],[0.5,1,0],[0.25,1,0],[0,0.75,0],[0,0.5,0],[0,0.25,0]];shape=mxgraph.bpmn.task;whiteSpace=wrap;rectStyle=rounded;size=10;html=1;taskMarker=abstract;" vertex="1" parent="5nUSWNSxmODM9DKenBCi-316">
          <mxGeometry x="310" y="40" width="120" height="80" as="geometry" />
        </mxCell>
        <mxCell id="5nUSWNSxmODM9DKenBCi-324" value="" style="points=[[0.145,0.145,0],[0.5,0,0],[0.855,0.145,0],[1,0.5,0],[0.855,0.855,0],[0.5,1,0],[0.145,0.855,0],[0,0.5,0]];shape=mxgraph.bpmn.event;html=1;verticalLabelPosition=bottom;labelBackgroundColor=#ffffff;verticalAlign=top;align=center;perimeter=ellipsePerimeter;outlineConnect=0;aspect=fixed;outline=end;symbol=terminate2;fillColor=none;" vertex="1" parent="5nUSWNSxmODM9DKenBCi-316">
          <mxGeometry x="474.5" y="55" width="50" height="50" as="geometry" />
        </mxCell>
        <mxCell id="5nUSWNSxmODM9DKenBCi-325" value="Информация&lt;div&gt;о заказах&lt;div&gt;получена&lt;/div&gt;&lt;/div&gt;" style="text;html=1;align=center;verticalAlign=middle;resizable=0;points=[];autosize=1;strokeColor=none;fillColor=none;" vertex="1" parent="5nUSWNSxmODM9DKenBCi-316">
          <mxGeometry x="449.5" y="105" width="100" height="60" as="geometry" />
        </mxCell>
        <mxCell id="5nUSWNSxmODM9DKenBCi-326" value="Начисление средств исполнителю" style="swimlane;html=1;childLayout=stackLayout;resizeParent=1;resizeParentMax=0;horizontal=0;startSize=20;horizontalStack=0;whiteSpace=wrap;" vertex="1" parent="1">
          <mxGeometry x="80" y="3479" width="840" height="280" as="geometry" />
        </mxCell>
        <mxCell id="5nUSWNSxmODM9DKenBCi-327" value="Исполнитель" style="swimlane;html=1;startSize=20;horizontal=0;" vertex="1" parent="5nUSWNSxmODM9DKenBCi-326">
          <mxGeometry x="20" width="820" height="120" as="geometry" />
        </mxCell>
        <mxCell id="5nUSWNSxmODM9DKenBCi-352" value="" style="edgeStyle=orthogonalEdgeStyle;rounded=0;orthogonalLoop=1;jettySize=auto;html=1;" edge="1" parent="5nUSWNSxmODM9DKenBCi-327" source="5nUSWNSxmODM9DKenBCi-348" target="5nUSWNSxmODM9DKenBCi-350">
          <mxGeometry relative="1" as="geometry" />
        </mxCell>
        <mxCell id="5nUSWNSxmODM9DKenBCi-348" value="Получение средств" style="points=[[0.25,0,0],[0.5,0,0],[0.75,0,0],[1,0.25,0],[1,0.5,0],[1,0.75,0],[0.75,1,0],[0.5,1,0],[0.25,1,0],[0,0.75,0],[0,0.5,0],[0,0.25,0]];shape=mxgraph.bpmn.task;whiteSpace=wrap;rectStyle=rounded;size=10;html=1;container=1;expand=0;collapsible=0;taskMarker=abstract;" vertex="1" parent="5nUSWNSxmODM9DKenBCi-327">
          <mxGeometry x="540" y="20" width="120" height="80" as="geometry" />
        </mxCell>
        <mxCell id="5nUSWNSxmODM9DKenBCi-350" value="" style="points=[[0.145,0.145,0],[0.5,0,0],[0.855,0.145,0],[1,0.5,0],[0.855,0.855,0],[0.5,1,0],[0.145,0.855,0],[0,0.5,0]];shape=mxgraph.bpmn.event;html=1;verticalLabelPosition=bottom;labelBackgroundColor=#ffffff;verticalAlign=top;align=center;perimeter=ellipsePerimeter;outlineConnect=0;aspect=fixed;outline=end;symbol=terminate2;fillColor=none;" vertex="1" parent="5nUSWNSxmODM9DKenBCi-327">
          <mxGeometry x="700" y="35" width="50" height="50" as="geometry" />
        </mxCell>
        <mxCell id="5nUSWNSxmODM9DKenBCi-351" value="Средства получены&lt;div&gt;исполнителем&lt;/div&gt;" style="text;html=1;align=center;verticalAlign=middle;resizable=0;points=[];autosize=1;strokeColor=none;fillColor=none;" vertex="1" parent="5nUSWNSxmODM9DKenBCi-327">
          <mxGeometry x="660" y="85" width="130" height="40" as="geometry" />
        </mxCell>
        <mxCell id="5nUSWNSxmODM9DKenBCi-328" value="Менеджер" style="swimlane;html=1;startSize=20;horizontal=0;" vertex="1" parent="5nUSWNSxmODM9DKenBCi-326">
          <mxGeometry x="20" y="120" width="820" height="160" as="geometry" />
        </mxCell>
        <mxCell id="5nUSWNSxmODM9DKenBCi-330" value="" style="points=[[0.145,0.145,0],[0.5,0,0],[0.855,0.145,0],[1,0.5,0],[0.855,0.855,0],[0.5,1,0],[0.145,0.855,0],[0,0.5,0]];shape=mxgraph.bpmn.event;html=1;verticalLabelPosition=bottom;labelBackgroundColor=#ffffff;verticalAlign=top;align=center;perimeter=ellipsePerimeter;outlineConnect=0;aspect=fixed;outline=standard;symbol=general;fillColor=none;" vertex="1" parent="5nUSWNSxmODM9DKenBCi-328">
          <mxGeometry x="80" y="55" width="50" height="50" as="geometry" />
        </mxCell>
        <mxCell id="5nUSWNSxmODM9DKenBCi-333" value="Выбор исполнителя&lt;div&gt;и указание суммы&lt;/div&gt;" style="points=[[0.25,0,0],[0.5,0,0],[0.75,0,0],[1,0.25,0],[1,0.5,0],[1,0.75,0],[0.75,1,0],[0.5,1,0],[0.25,1,0],[0,0.75,0],[0,0.5,0],[0,0.25,0]];shape=mxgraph.bpmn.task;whiteSpace=wrap;rectStyle=rounded;size=10;html=1;container=1;expand=0;collapsible=0;taskMarker=user;" vertex="1" parent="5nUSWNSxmODM9DKenBCi-328">
          <mxGeometry x="195" y="40" width="120" height="80" as="geometry" />
        </mxCell>
        <mxCell id="5nUSWNSxmODM9DKenBCi-334" style="edgeStyle=orthogonalEdgeStyle;rounded=0;orthogonalLoop=1;jettySize=auto;html=1;entryX=0;entryY=0.5;entryDx=0;entryDy=0;entryPerimeter=0;" edge="1" parent="5nUSWNSxmODM9DKenBCi-328" source="5nUSWNSxmODM9DKenBCi-330" target="5nUSWNSxmODM9DKenBCi-333">
          <mxGeometry relative="1" as="geometry" />
        </mxCell>
        <mxCell id="5nUSWNSxmODM9DKenBCi-332" value="Появление потребности&lt;div&gt;сделать&amp;nbsp;&lt;span style=&quot;background-color: transparent; color: light-dark(rgb(0, 0, 0), rgb(255, 255, 255));&quot;&gt;зачисление средств&lt;/span&gt;&lt;/div&gt;" style="text;html=1;align=center;verticalAlign=middle;resizable=0;points=[];autosize=1;strokeColor=none;fillColor=none;" vertex="1" parent="5nUSWNSxmODM9DKenBCi-328">
          <mxGeometry x="15" y="105" width="180" height="40" as="geometry" />
        </mxCell>
        <mxCell id="5nUSWNSxmODM9DKenBCi-341" value="" style="edgeStyle=none;html=1;" edge="1" parent="5nUSWNSxmODM9DKenBCi-328" target="5nUSWNSxmODM9DKenBCi-342">
          <mxGeometry relative="1" as="geometry">
            <mxPoint x="315" y="80" as="sourcePoint" />
          </mxGeometry>
        </mxCell>
        <mxCell id="5nUSWNSxmODM9DKenBCi-342" value="" style="points=[[0.145,0.145,0],[0.5,0,0],[0.855,0.145,0],[1,0.5,0],[0.855,0.855,0],[0.5,1,0],[0.145,0.855,0],[0,0.5,0]];shape=mxgraph.bpmn.event;html=1;verticalLabelPosition=bottom;labelBackgroundColor=#ffffff;verticalAlign=top;align=center;perimeter=ellipsePerimeter;outlineConnect=0;aspect=fixed;outline=throwing;symbol=message;" vertex="1" parent="5nUSWNSxmODM9DKenBCi-328">
          <mxGeometry x="355" y="55" width="50" height="50" as="geometry" />
        </mxCell>
        <mxCell id="5nUSWNSxmODM9DKenBCi-343" value="" style="dashed=1;dashPattern=8 4;endArrow=blockThin;endFill=1;startArrow=oval;startFill=0;endSize=6;startSize=4;html=1;rounded=0;jumpStyle=gap;exitX=0.5;exitY=1;exitDx=0;exitDy=0;exitPerimeter=0;entryX=0.171;entryY=0.014;entryDx=0;entryDy=0;entryPerimeter=0;" edge="1" parent="5nUSWNSxmODM9DKenBCi-328" target="5nUSWNSxmODM9DKenBCi-346">
          <mxGeometry width="160" relative="1" as="geometry">
            <mxPoint x="379.5" y="105" as="sourcePoint" />
            <mxPoint x="380" y="219" as="targetPoint" />
          </mxGeometry>
        </mxCell>
        <mxCell id="5nUSWNSxmODM9DKenBCi-344" value="" style="points=[[0.145,0.145,0],[0.5,0,0],[0.855,0.145,0],[1,0.5,0],[0.855,0.855,0],[0.5,1,0],[0.145,0.855,0],[0,0.5,0]];shape=mxgraph.bpmn.event;html=1;verticalLabelPosition=bottom;labelBackgroundColor=#ffffff;verticalAlign=top;align=center;perimeter=ellipsePerimeter;outlineConnect=0;aspect=fixed;outline=catching;symbol=message;strokeColor=default;" vertex="1" parent="5nUSWNSxmODM9DKenBCi-328">
          <mxGeometry x="445" y="55" width="50" height="50" as="geometry" />
        </mxCell>
        <mxCell id="5nUSWNSxmODM9DKenBCi-345" value="Получение информации&lt;br&gt;о транзакции" style="text;html=1;align=center;verticalAlign=middle;resizable=0;points=[];autosize=1;strokeColor=none;fillColor=none;" vertex="1" parent="5nUSWNSxmODM9DKenBCi-328">
          <mxGeometry x="475" y="109" width="160" height="40" as="geometry" />
        </mxCell>
        <mxCell id="5nUSWNSxmODM9DKenBCi-353" value="Отправка информации&lt;br&gt;о транзакции" style="text;html=1;align=center;verticalAlign=middle;resizable=0;points=[];autosize=1;strokeColor=none;fillColor=none;" vertex="1" parent="5nUSWNSxmODM9DKenBCi-328">
          <mxGeometry x="305" y="15" width="150" height="40" as="geometry" />
        </mxCell>
        <mxCell id="5nUSWNSxmODM9DKenBCi-349" style="edgeStyle=orthogonalEdgeStyle;rounded=0;orthogonalLoop=1;jettySize=auto;html=1;entryX=0;entryY=0.5;entryDx=0;entryDy=0;entryPerimeter=0;" edge="1" parent="5nUSWNSxmODM9DKenBCi-326" source="5nUSWNSxmODM9DKenBCi-344" target="5nUSWNSxmODM9DKenBCi-348">
          <mxGeometry relative="1" as="geometry" />
        </mxCell>
        <mxCell id="5nUSWNSxmODM9DKenBCi-346" value="Платёжный сервис" style="swimlane;html=1;childLayout=stackLayout;resizeParent=1;resizeParentMax=0;startSize=20;whiteSpace=wrap;strokeColor=default;" vertex="1" collapsed="1" parent="1">
          <mxGeometry x="455" y="3799" width="150" height="30" as="geometry">
            <mxRectangle x="260" y="1120" width="40" height="480" as="alternateBounds" />
          </mxGeometry>
        </mxCell>
        <mxCell id="5nUSWNSxmODM9DKenBCi-347" value="" style="dashed=1;dashPattern=8 4;endArrow=blockThin;endFill=1;startArrow=oval;startFill=0;endSize=6;startSize=4;html=1;rounded=0;jumpStyle=gap;exitX=0.767;exitY=0;exitDx=0;exitDy=0;entryX=0.5;entryY=1;entryDx=0;entryDy=0;entryPerimeter=0;exitPerimeter=0;" edge="1" parent="1" source="5nUSWNSxmODM9DKenBCi-346" target="5nUSWNSxmODM9DKenBCi-344">
          <mxGeometry width="160" relative="1" as="geometry">
            <mxPoint x="570" y="3828" as="sourcePoint" />
            <mxPoint x="568" y="3708" as="targetPoint" />
          </mxGeometry>
        </mxCell>
        <mxCell id="5nUSWNSxmODM9DKenBCi-354" value="Создание ставок" style="swimlane;html=1;childLayout=stackLayout;resizeParent=1;resizeParentMax=0;horizontal=0;startSize=20;horizontalStack=0;whiteSpace=wrap;" vertex="1" parent="1">
          <mxGeometry x="80" y="3919" width="450" height="160" as="geometry" />
        </mxCell>
        <mxCell id="5nUSWNSxmODM9DKenBCi-355" value="Менеджер" style="swimlane;html=1;startSize=20;horizontal=0;" vertex="1" parent="5nUSWNSxmODM9DKenBCi-354">
          <mxGeometry x="20" width="430" height="160" as="geometry" />
        </mxCell>
        <mxCell id="5nUSWNSxmODM9DKenBCi-358" value="" style="points=[[0.145,0.145,0],[0.5,0,0],[0.855,0.145,0],[1,0.5,0],[0.855,0.855,0],[0.5,1,0],[0.145,0.855,0],[0,0.5,0]];shape=mxgraph.bpmn.event;html=1;verticalLabelPosition=bottom;labelBackgroundColor=#ffffff;verticalAlign=top;align=center;perimeter=ellipsePerimeter;outlineConnect=0;aspect=fixed;outline=standard;symbol=general;fillColor=none;" vertex="1" parent="5nUSWNSxmODM9DKenBCi-355">
          <mxGeometry x="80" y="35" width="50" height="50" as="geometry" />
        </mxCell>
        <mxCell id="5nUSWNSxmODM9DKenBCi-359" value="Появление потребности&lt;div&gt;сделать&amp;nbsp;&lt;span style=&quot;background-color: transparent; color: light-dark(rgb(0, 0, 0), rgb(255, 255, 255));&quot;&gt;ставку&lt;/span&gt;&lt;/div&gt;" style="text;html=1;align=center;verticalAlign=middle;resizable=0;points=[];autosize=1;strokeColor=none;fillColor=none;" vertex="1" parent="5nUSWNSxmODM9DKenBCi-355">
          <mxGeometry x="25" y="80" width="160" height="40" as="geometry" />
        </mxCell>
        <mxCell id="5nUSWNSxmODM9DKenBCi-362" value="Выбор заказа, суммы и условия" style="points=[[0.25,0,0],[0.5,0,0],[0.75,0,0],[1,0.25,0],[1,0.5,0],[1,0.75,0],[0.75,1,0],[0.5,1,0],[0.25,1,0],[0,0.75,0],[0,0.5,0],[0,0.25,0]];shape=mxgraph.bpmn.task;whiteSpace=wrap;rectStyle=rounded;size=10;html=1;container=1;expand=0;collapsible=0;taskMarker=user;" vertex="1" parent="5nUSWNSxmODM9DKenBCi-355">
          <mxGeometry x="180" y="20" width="120" height="80" as="geometry" />
        </mxCell>
        <mxCell id="5nUSWNSxmODM9DKenBCi-364" style="edgeStyle=orthogonalEdgeStyle;rounded=0;orthogonalLoop=1;jettySize=auto;html=1;entryX=0;entryY=0.5;entryDx=0;entryDy=0;entryPerimeter=0;" edge="1" parent="5nUSWNSxmODM9DKenBCi-355" source="5nUSWNSxmODM9DKenBCi-358" target="5nUSWNSxmODM9DKenBCi-362">
          <mxGeometry relative="1" as="geometry" />
        </mxCell>
        <mxCell id="5nUSWNSxmODM9DKenBCi-366" style="edgeStyle=orthogonalEdgeStyle;rounded=0;orthogonalLoop=1;jettySize=auto;html=1;entryX=0;entryY=0.5;entryDx=0;entryDy=0;entryPerimeter=0;" edge="1" parent="5nUSWNSxmODM9DKenBCi-355" source="5nUSWNSxmODM9DKenBCi-362">
          <mxGeometry relative="1" as="geometry">
            <mxPoint x="340" y="60" as="targetPoint" />
          </mxGeometry>
        </mxCell>
        <mxCell id="5nUSWNSxmODM9DKenBCi-401" value="" style="points=[[0.145,0.145,0],[0.5,0,0],[0.855,0.145,0],[1,0.5,0],[0.855,0.855,0],[0.5,1,0],[0.145,0.855,0],[0,0.5,0]];shape=mxgraph.bpmn.event;html=1;verticalLabelPosition=bottom;labelBackgroundColor=#ffffff;verticalAlign=top;align=center;perimeter=ellipsePerimeter;outlineConnect=0;aspect=fixed;outline=end;symbol=terminate2;" vertex="1" parent="5nUSWNSxmODM9DKenBCi-355">
          <mxGeometry x="340" y="35" width="50" height="50" as="geometry" />
        </mxCell>
        <mxCell id="5nUSWNSxmODM9DKenBCi-402" value="Ставка сделана" style="text;html=1;align=center;verticalAlign=middle;resizable=0;points=[];autosize=1;strokeColor=none;fillColor=none;" vertex="1" parent="5nUSWNSxmODM9DKenBCi-355">
          <mxGeometry x="310" y="85" width="110" height="30" as="geometry" />
        </mxCell>
        <mxCell id="5nUSWNSxmODM9DKenBCi-383" value="Определение победителей" style="swimlane;html=1;childLayout=stackLayout;resizeParent=1;resizeParentMax=0;horizontal=0;startSize=20;horizontalStack=0;whiteSpace=wrap;" vertex="1" parent="1">
          <mxGeometry x="80" y="4159" width="560" height="200" as="geometry" />
        </mxCell>
        <mxCell id="5nUSWNSxmODM9DKenBCi-384" value="Менеджер" style="swimlane;html=1;startSize=20;horizontal=0;" vertex="1" parent="5nUSWNSxmODM9DKenBCi-383">
          <mxGeometry x="20" width="540" height="200" as="geometry" />
        </mxCell>
        <mxCell id="5nUSWNSxmODM9DKenBCi-391" value="Определение победителей и расчёт выигрыша" style="points=[[0.25,0,0],[0.5,0,0],[0.75,0,0],[1,0.25,0],[1,0.5,0],[1,0.75,0],[0.75,1,0],[0.5,1,0],[0.25,1,0],[0,0.75,0],[0,0.5,0],[0,0.25,0]];shape=mxgraph.bpmn.task;whiteSpace=wrap;rectStyle=rounded;size=10;html=1;container=1;expand=0;collapsible=0;taskMarker=abstract;" vertex="1" parent="5nUSWNSxmODM9DKenBCi-384">
          <mxGeometry x="180" y="60" width="120" height="80" as="geometry" />
        </mxCell>
        <mxCell id="5nUSWNSxmODM9DKenBCi-395" value="" style="points=[[0.145,0.145,0],[0.5,0,0],[0.855,0.145,0],[1,0.5,0],[0.855,0.855,0],[0.5,1,0],[0.145,0.855,0],[0,0.5,0]];shape=mxgraph.bpmn.event;html=1;verticalLabelPosition=bottom;labelBackgroundColor=#ffffff;verticalAlign=top;align=center;perimeter=ellipsePerimeter;outlineConnect=0;aspect=fixed;outline=throwing;symbol=message;" vertex="1" parent="5nUSWNSxmODM9DKenBCi-384">
          <mxGeometry x="340" y="75" width="50" height="50" as="geometry" />
        </mxCell>
        <mxCell id="5nUSWNSxmODM9DKenBCi-396" value="Отправка результатов&lt;div&gt;старшему менеджеру&lt;/div&gt;" style="text;html=1;align=center;verticalAlign=middle;resizable=0;points=[];autosize=1;strokeColor=none;fillColor=none;" vertex="1" parent="5nUSWNSxmODM9DKenBCi-384">
          <mxGeometry x="290" y="30" width="150" height="40" as="geometry" />
        </mxCell>
        <mxCell id="5nUSWNSxmODM9DKenBCi-403" value="" style="points=[[0.145,0.145,0],[0.5,0,0],[0.855,0.145,0],[1,0.5,0],[0.855,0.855,0],[0.5,1,0],[0.145,0.855,0],[0,0.5,0]];shape=mxgraph.bpmn.event;html=1;verticalLabelPosition=bottom;labelBackgroundColor=#ffffff;verticalAlign=top;align=center;perimeter=ellipsePerimeter;outlineConnect=0;aspect=fixed;outline=standard;symbol=message;" vertex="1" parent="5nUSWNSxmODM9DKenBCi-384">
          <mxGeometry x="80" y="75" width="50" height="50" as="geometry" />
        </mxCell>
        <mxCell id="5nUSWNSxmODM9DKenBCi-405" style="edgeStyle=orthogonalEdgeStyle;rounded=0;orthogonalLoop=1;jettySize=auto;html=1;entryX=0;entryY=0.5;entryDx=0;entryDy=0;entryPerimeter=0;" edge="1" parent="5nUSWNSxmODM9DKenBCi-384" source="5nUSWNSxmODM9DKenBCi-403" target="5nUSWNSxmODM9DKenBCi-391">
          <mxGeometry relative="1" as="geometry" />
        </mxCell>
        <mxCell id="5nUSWNSxmODM9DKenBCi-406" value="" style="edgeStyle=orthogonalEdgeStyle;rounded=0;orthogonalLoop=1;jettySize=auto;html=1;" edge="1" parent="5nUSWNSxmODM9DKenBCi-384" source="5nUSWNSxmODM9DKenBCi-395" target="5nUSWNSxmODM9DKenBCi-397">
          <mxGeometry relative="1" as="geometry">
            <mxPoint x="810" y="3620" as="targetPoint" />
            <mxPoint x="450" y="3635" as="sourcePoint" />
          </mxGeometry>
        </mxCell>
        <mxCell id="5nUSWNSxmODM9DKenBCi-397" value="" style="points=[[0.145,0.145,0],[0.5,0,0],[0.855,0.145,0],[1,0.5,0],[0.855,0.855,0],[0.5,1,0],[0.145,0.855,0],[0,0.5,0]];shape=mxgraph.bpmn.event;html=1;verticalLabelPosition=bottom;labelBackgroundColor=#ffffff;verticalAlign=top;align=center;perimeter=ellipsePerimeter;outlineConnect=0;aspect=fixed;outline=end;symbol=terminate2;" vertex="1" parent="5nUSWNSxmODM9DKenBCi-384">
          <mxGeometry x="435" y="75" width="50" height="50" as="geometry" />
        </mxCell>
        <mxCell id="5nUSWNSxmODM9DKenBCi-404" value="Получение информации&lt;div&gt;о завершённом заказе&lt;/div&gt;" style="text;html=1;align=center;verticalAlign=middle;resizable=0;points=[];autosize=1;strokeColor=none;fillColor=none;" vertex="1" parent="5nUSWNSxmODM9DKenBCi-384">
          <mxGeometry x="25" y="130" width="160" height="40" as="geometry" />
        </mxCell>
        <mxCell id="5nUSWNSxmODM9DKenBCi-398" value="Победители определены,&lt;div&gt;рассчитан выигрыш&lt;/div&gt;" style="text;html=1;align=center;verticalAlign=middle;resizable=0;points=[];autosize=1;strokeColor=none;fillColor=none;" vertex="1" parent="5nUSWNSxmODM9DKenBCi-384">
          <mxGeometry x="375" y="130" width="170" height="40" as="geometry" />
        </mxCell>
        <mxCell id="5nUSWNSxmODM9DKenBCi-408" style="edgeStyle=orthogonalEdgeStyle;rounded=0;orthogonalLoop=1;jettySize=auto;html=1;entryX=0;entryY=0.5;entryDx=0;entryDy=0;entryPerimeter=0;" edge="1" parent="5nUSWNSxmODM9DKenBCi-384" source="5nUSWNSxmODM9DKenBCi-391" target="5nUSWNSxmODM9DKenBCi-395">
          <mxGeometry relative="1" as="geometry" />
        </mxCell>
        <mxCell id="5nUSWNSxmODM9DKenBCi-399" value="Старший менеджер" style="swimlane;html=1;childLayout=stackLayout;resizeParent=1;resizeParentMax=0;startSize=20;whiteSpace=wrap;strokeColor=default;" vertex="1" collapsed="1" parent="1">
          <mxGeometry x="390" y="4400" width="150" height="30" as="geometry">
            <mxRectangle x="260" y="1120" width="40" height="480" as="alternateBounds" />
          </mxGeometry>
        </mxCell>
        <mxCell id="5nUSWNSxmODM9DKenBCi-400" value="" style="dashed=1;dashPattern=8 4;endArrow=blockThin;endFill=1;startArrow=oval;startFill=0;endSize=6;startSize=4;html=1;rounded=0;jumpStyle=gap;entryX=0.5;entryY=0;entryDx=0;entryDy=0;exitX=0.5;exitY=1;exitDx=0;exitDy=0;exitPerimeter=0;" edge="1" parent="1" source="5nUSWNSxmODM9DKenBCi-395" target="5nUSWNSxmODM9DKenBCi-399">
          <mxGeometry width="160" relative="1" as="geometry">
            <mxPoint x="835" y="4244" as="sourcePoint" />
            <mxPoint x="831.1500000000003" y="4339.42" as="targetPoint" />
          </mxGeometry>
        </mxCell>
        <mxCell id="5nUSWNSxmODM9DKenBCi-411" value="Создание заказа" style="swimlane;html=1;childLayout=stackLayout;resizeParent=1;resizeParentMax=0;horizontal=0;startSize=20;horizontalStack=0;whiteSpace=wrap;" vertex="1" parent="1">
          <mxGeometry x="80" y="80" width="890" height="240" as="geometry" />
        </mxCell>
        <mxCell id="5nUSWNSxmODM9DKenBCi-412" value="Заказчик" style="swimlane;html=1;startSize=20;horizontal=0;" vertex="1" parent="5nUSWNSxmODM9DKenBCi-411">
          <mxGeometry x="20" width="870" height="120" as="geometry">
            <mxRectangle x="20" width="710" height="30" as="alternateBounds" />
          </mxGeometry>
        </mxCell>
        <mxCell id="5nUSWNSxmODM9DKenBCi-413" value="" style="edgeStyle=none;html=1;" edge="1" parent="5nUSWNSxmODM9DKenBCi-412" source="5nUSWNSxmODM9DKenBCi-414">
          <mxGeometry relative="1" as="geometry">
            <mxPoint x="150" y="60" as="targetPoint" />
          </mxGeometry>
        </mxCell>
        <mxCell id="5nUSWNSxmODM9DKenBCi-414" value="" style="points=[[0.145,0.145,0],[0.5,0,0],[0.855,0.145,0],[1,0.5,0],[0.855,0.855,0],[0.5,1,0],[0.145,0.855,0],[0,0.5,0]];shape=mxgraph.bpmn.event;html=1;verticalLabelPosition=bottom;labelBackgroundColor=#ffffff;verticalAlign=top;align=center;perimeter=ellipsePerimeter;outlineConnect=0;aspect=fixed;outline=standard;symbol=general;" vertex="1" parent="5nUSWNSxmODM9DKenBCi-412">
          <mxGeometry x="60" y="35" width="50" height="50" as="geometry" />
        </mxCell>
        <mxCell id="5nUSWNSxmODM9DKenBCi-415" value="Появление&lt;br&gt;потребности в услуге" style="text;html=1;align=center;verticalAlign=middle;resizable=0;points=[];autosize=1;strokeColor=none;fillColor=none;" vertex="1" parent="5nUSWNSxmODM9DKenBCi-412">
          <mxGeometry x="15" y="80" width="140" height="40" as="geometry" />
        </mxCell>
        <mxCell id="5nUSWNSxmODM9DKenBCi-416" value="Публикация задачи" style="points=[[0.25,0,0],[0.5,0,0],[0.75,0,0],[1,0.25,0],[1,0.5,0],[1,0.75,0],[0.75,1,0],[0.5,1,0],[0.25,1,0],[0,0.75,0],[0,0.5,0],[0,0.25,0]];shape=mxgraph.bpmn.task;whiteSpace=wrap;rectStyle=rounded;size=10;html=1;taskMarker=abstract;" vertex="1" parent="5nUSWNSxmODM9DKenBCi-412">
          <mxGeometry x="470" y="20" width="120" height="80" as="geometry" />
        </mxCell>
        <mxCell id="5nUSWNSxmODM9DKenBCi-418" value="Заполнение описания задачи и выбор её типа в форме" style="points=[[0.25,0,0],[0.5,0,0],[0.75,0,0],[1,0.25,0],[1,0.5,0],[1,0.75,0],[0.75,1,0],[0.5,1,0],[0.25,1,0],[0,0.75,0],[0,0.5,0],[0,0.25,0]];shape=mxgraph.bpmn.task;whiteSpace=wrap;rectStyle=rounded;size=10;html=1;taskMarker=user;strokeColor=default;" vertex="1" parent="5nUSWNSxmODM9DKenBCi-412">
          <mxGeometry x="150" y="20" width="120" height="80" as="geometry" />
        </mxCell>
        <mxCell id="5nUSWNSxmODM9DKenBCi-419" value="Расчёт примерной стоимости услуги" style="points=[[0.25,0,0],[0.5,0,0],[0.75,0,0],[1,0.25,0],[1,0.5,0],[1,0.75,0],[0.75,1,0],[0.5,1,0],[0.25,1,0],[0,0.75,0],[0,0.5,0],[0,0.25,0]];shape=mxgraph.bpmn.task;whiteSpace=wrap;rectStyle=rounded;size=10;html=1;taskMarker=abstract;" vertex="1" parent="5nUSWNSxmODM9DKenBCi-412">
          <mxGeometry x="310" y="20" width="120" height="80" as="geometry" />
        </mxCell>
        <mxCell id="5nUSWNSxmODM9DKenBCi-420" value="" style="edgeStyle=orthogonalEdgeStyle;rounded=0;html=1;entryX=0;entryY=0.5;entryDx=0;entryDy=0;entryPerimeter=0;" edge="1" parent="5nUSWNSxmODM9DKenBCi-412" source="5nUSWNSxmODM9DKenBCi-419" target="5nUSWNSxmODM9DKenBCi-416">
          <mxGeometry relative="1" as="geometry" />
        </mxCell>
        <mxCell id="5nUSWNSxmODM9DKenBCi-464" value="" style="edgeStyle=orthogonalEdgeStyle;rounded=0;orthogonalLoop=1;jettySize=auto;html=1;" edge="1" parent="5nUSWNSxmODM9DKenBCi-412" source="5nUSWNSxmODM9DKenBCi-421" target="5nUSWNSxmODM9DKenBCi-463">
          <mxGeometry relative="1" as="geometry" />
        </mxCell>
        <mxCell id="5nUSWNSxmODM9DKenBCi-421" value="Расчёт финальной стоимости услуги" style="points=[[0.25,0,0],[0.5,0,0],[0.75,0,0],[1,0.25,0],[1,0.5,0],[1,0.75,0],[0.75,1,0],[0.5,1,0],[0.25,1,0],[0,0.75,0],[0,0.5,0],[0,0.25,0]];shape=mxgraph.bpmn.task;whiteSpace=wrap;rectStyle=rounded;size=10;html=1;taskMarker=abstract;" vertex="1" parent="5nUSWNSxmODM9DKenBCi-412">
          <mxGeometry x="620" y="20" width="120" height="80" as="geometry" />
        </mxCell>
        <mxCell id="5nUSWNSxmODM9DKenBCi-463" value="" style="points=[[0.145,0.145,0],[0.5,0,0],[0.855,0.145,0],[1,0.5,0],[0.855,0.855,0],[0.5,1,0],[0.145,0.855,0],[0,0.5,0]];shape=mxgraph.bpmn.event;html=1;verticalLabelPosition=bottom;labelBackgroundColor=#ffffff;verticalAlign=top;align=center;perimeter=ellipsePerimeter;outlineConnect=0;aspect=fixed;outline=end;symbol=terminate2;strokeColor=default;" vertex="1" parent="5nUSWNSxmODM9DKenBCi-412">
          <mxGeometry x="780" y="35" width="50" height="50" as="geometry" />
        </mxCell>
        <mxCell id="5nUSWNSxmODM9DKenBCi-465" value="Заказ создан" style="text;html=1;align=center;verticalAlign=middle;resizable=0;points=[];autosize=1;strokeColor=none;fillColor=none;" vertex="1" parent="5nUSWNSxmODM9DKenBCi-412">
          <mxGeometry x="755" y="85" width="100" height="30" as="geometry" />
        </mxCell>
        <mxCell id="5nUSWNSxmODM9DKenBCi-428" style="edgeStyle=orthogonalEdgeStyle;html=1;entryX=0;entryY=0.5;entryDx=0;entryDy=0;entryPerimeter=0;rounded=0;" edge="1" parent="5nUSWNSxmODM9DKenBCi-411" target="5nUSWNSxmODM9DKenBCi-419">
          <mxGeometry relative="1" as="geometry">
            <mxPoint x="290" y="60" as="sourcePoint" />
          </mxGeometry>
        </mxCell>
        <mxCell id="5nUSWNSxmODM9DKenBCi-429" style="edgeStyle=orthogonalEdgeStyle;rounded=0;html=1;entryX=0.5;entryY=0;entryDx=0;entryDy=0;entryPerimeter=0;" edge="1" parent="5nUSWNSxmODM9DKenBCi-411" source="5nUSWNSxmODM9DKenBCi-416" target="5nUSWNSxmODM9DKenBCi-436">
          <mxGeometry relative="1" as="geometry" />
        </mxCell>
        <mxCell id="5nUSWNSxmODM9DKenBCi-431" value="" style="edgeStyle=orthogonalEdgeStyle;html=1;entryX=0.5;entryY=1;entryDx=0;entryDy=0;entryPerimeter=0;exitX=1;exitY=0.5;exitDx=0;exitDy=0;exitPerimeter=0;rounded=0;" edge="1" parent="5nUSWNSxmODM9DKenBCi-411" source="5nUSWNSxmODM9DKenBCi-436" target="5nUSWNSxmODM9DKenBCi-421">
          <mxGeometry relative="1" as="geometry" />
        </mxCell>
        <mxCell id="5nUSWNSxmODM9DKenBCi-434" value="Исполнитель" style="swimlane;html=1;startSize=20;horizontal=0;" vertex="1" parent="5nUSWNSxmODM9DKenBCi-411">
          <mxGeometry x="20" y="120" width="870" height="120" as="geometry">
            <mxRectangle x="20" y="120" width="710" height="30" as="alternateBounds" />
          </mxGeometry>
        </mxCell>
        <mxCell id="5nUSWNSxmODM9DKenBCi-436" value="Подбор исполнителя" style="points=[[0.25,0,0],[0.5,0,0],[0.75,0,0],[1,0.25,0],[1,0.5,0],[1,0.75,0],[0.75,1,0],[0.5,1,0],[0.25,1,0],[0,0.75,0],[0,0.5,0],[0,0.25,0]];shape=mxgraph.bpmn.task;whiteSpace=wrap;rectStyle=rounded;size=10;html=1;taskMarker=abstract;" vertex="1" parent="5nUSWNSxmODM9DKenBCi-434">
          <mxGeometry x="470" y="20" width="120" height="80" as="geometry" />
        </mxCell>
        <mxCell id="5nUSWNSxmODM9DKenBCi-481" value="Проверка качества выполненной работы" style="swimlane;html=1;childLayout=stackLayout;resizeParent=1;resizeParentMax=0;horizontal=0;startSize=20;horizontalStack=0;whiteSpace=wrap;" vertex="1" parent="1">
          <mxGeometry x="81" y="1480" width="940" height="280" as="geometry" />
        </mxCell>
        <mxCell id="5nUSWNSxmODM9DKenBCi-482" value="Менеджер" style="swimlane;html=1;startSize=20;horizontal=0;" vertex="1" parent="5nUSWNSxmODM9DKenBCi-481">
          <mxGeometry x="20" width="920" height="280" as="geometry" />
        </mxCell>
        <mxCell id="5nUSWNSxmODM9DKenBCi-498" value="" style="points=[[0.145,0.145,0],[0.5,0,0],[0.855,0.145,0],[1,0.5,0],[0.855,0.855,0],[0.5,1,0],[0.145,0.855,0],[0,0.5,0]];shape=mxgraph.bpmn.event;html=1;verticalLabelPosition=bottom;labelBackgroundColor=#ffffff;verticalAlign=top;align=center;perimeter=ellipsePerimeter;outlineConnect=0;aspect=fixed;outline=standard;symbol=general;" vertex="1" parent="5nUSWNSxmODM9DKenBCi-482">
          <mxGeometry x="80" y="115" width="50" height="50" as="geometry" />
        </mxCell>
        <mxCell id="5nUSWNSxmODM9DKenBCi-499" value="Появление потребности&lt;div&gt;в проверке качества&lt;/div&gt;" style="text;html=1;align=center;verticalAlign=middle;resizable=0;points=[];autosize=1;strokeColor=none;fillColor=none;" vertex="1" parent="5nUSWNSxmODM9DKenBCi-482">
          <mxGeometry x="25" y="165" width="160" height="40" as="geometry" />
        </mxCell>
        <mxCell id="5nUSWNSxmODM9DKenBCi-500" value="Выбор заказа для проверки" style="points=[[0.25,0,0],[0.5,0,0],[0.75,0,0],[1,0.25,0],[1,0.5,0],[1,0.75,0],[0.75,1,0],[0.5,1,0],[0.25,1,0],[0,0.75,0],[0,0.5,0],[0,0.25,0]];shape=mxgraph.bpmn.task;whiteSpace=wrap;rectStyle=rounded;size=10;html=1;container=1;expand=0;collapsible=0;taskMarker=user;" vertex="1" parent="5nUSWNSxmODM9DKenBCi-482">
          <mxGeometry x="180" y="100" width="120" height="80" as="geometry" />
        </mxCell>
        <mxCell id="5nUSWNSxmODM9DKenBCi-502" style="edgeStyle=orthogonalEdgeStyle;rounded=0;orthogonalLoop=1;jettySize=auto;html=1;entryX=0;entryY=0.5;entryDx=0;entryDy=0;entryPerimeter=0;" edge="1" parent="5nUSWNSxmODM9DKenBCi-482" source="5nUSWNSxmODM9DKenBCi-498" target="5nUSWNSxmODM9DKenBCi-500">
          <mxGeometry relative="1" as="geometry" />
        </mxCell>
        <mxCell id="5nUSWNSxmODM9DKenBCi-503" value="" style="edgeStyle=orthogonalEdgeStyle;rounded=0;jumpStyle=gap;html=1;" edge="1" parent="5nUSWNSxmODM9DKenBCi-482" source="5nUSWNSxmODM9DKenBCi-505" target="5nUSWNSxmODM9DKenBCi-507">
          <mxGeometry relative="1" as="geometry" />
        </mxCell>
        <mxCell id="5nUSWNSxmODM9DKenBCi-504" style="edgeStyle=orthogonalEdgeStyle;rounded=0;jumpStyle=gap;html=1;" edge="1" parent="5nUSWNSxmODM9DKenBCi-482" source="5nUSWNSxmODM9DKenBCi-505" target="5nUSWNSxmODM9DKenBCi-509">
          <mxGeometry relative="1" as="geometry">
            <Array as="points">
              <mxPoint x="525" y="220" />
              <mxPoint x="775" y="220" />
            </Array>
          </mxGeometry>
        </mxCell>
        <mxCell id="5nUSWNSxmODM9DKenBCi-505" value="" style="points=[[0.25,0.25,0],[0.5,0,0],[0.75,0.25,0],[1,0.5,0],[0.75,0.75,0],[0.5,1,0],[0.25,0.75,0],[0,0.5,0]];shape=mxgraph.bpmn.gateway2;html=1;verticalLabelPosition=bottom;labelBackgroundColor=#ffffff;verticalAlign=top;align=center;perimeter=rhombusPerimeter;outlineConnect=0;outline=none;symbol=none;gwType=exclusive;strokeColor=default;" vertex="1" parent="5nUSWNSxmODM9DKenBCi-482">
          <mxGeometry x="500" y="115" width="50" height="50" as="geometry" />
        </mxCell>
        <mxCell id="5nUSWNSxmODM9DKenBCi-506" value="" style="edgeStyle=orthogonalEdgeStyle;rounded=0;jumpStyle=gap;html=1;" edge="1" parent="5nUSWNSxmODM9DKenBCi-482" source="5nUSWNSxmODM9DKenBCi-507" target="5nUSWNSxmODM9DKenBCi-509">
          <mxGeometry relative="1" as="geometry" />
        </mxCell>
        <mxCell id="5nUSWNSxmODM9DKenBCi-507" value="Звонок клиенту" style="points=[[0.25,0,0],[0.5,0,0],[0.75,0,0],[1,0.25,0],[1,0.5,0],[1,0.75,0],[0.75,1,0],[0.5,1,0],[0.25,1,0],[0,0.75,0],[0,0.5,0],[0,0.25,0]];shape=mxgraph.bpmn.task;whiteSpace=wrap;rectStyle=rounded;size=10;html=1;taskMarker=manual;strokeColor=default;" vertex="1" parent="5nUSWNSxmODM9DKenBCi-482">
          <mxGeometry x="590" y="100" width="120" height="80" as="geometry" />
        </mxCell>
        <mxCell id="5nUSWNSxmODM9DKenBCi-508" value="" style="edgeStyle=orthogonalEdgeStyle;rounded=0;jumpStyle=gap;html=1;" edge="1" parent="5nUSWNSxmODM9DKenBCi-482" source="5nUSWNSxmODM9DKenBCi-509">
          <mxGeometry relative="1" as="geometry">
            <mxPoint x="839.9999999999998" y="140" as="targetPoint" />
          </mxGeometry>
        </mxCell>
        <mxCell id="5nUSWNSxmODM9DKenBCi-509" value="" style="points=[[0.25,0.25,0],[0.5,0,0],[0.75,0.25,0],[1,0.5,0],[0.75,0.75,0],[0.5,1,0],[0.25,0.75,0],[0,0.5,0]];shape=mxgraph.bpmn.gateway2;html=1;verticalLabelPosition=bottom;labelBackgroundColor=#ffffff;verticalAlign=top;align=center;perimeter=rhombusPerimeter;outlineConnect=0;outline=none;symbol=none;gwType=exclusive;strokeColor=default;" vertex="1" parent="5nUSWNSxmODM9DKenBCi-482">
          <mxGeometry x="750" y="115" width="50" height="50" as="geometry" />
        </mxCell>
        <mxCell id="5nUSWNSxmODM9DKenBCi-514" value="" style="points=[[0.145,0.145,0],[0.5,0,0],[0.855,0.145,0],[1,0.5,0],[0.855,0.855,0],[0.5,1,0],[0.145,0.855,0],[0,0.5,0]];shape=mxgraph.bpmn.event;html=1;verticalLabelPosition=bottom;labelBackgroundColor=#ffffff;verticalAlign=top;align=center;perimeter=ellipsePerimeter;outlineConnect=0;aspect=fixed;outline=end;symbol=terminate2;strokeColor=default;" vertex="1" parent="5nUSWNSxmODM9DKenBCi-482">
          <mxGeometry x="840" y="115" width="50" height="50" as="geometry" />
        </mxCell>
        <mxCell id="5nUSWNSxmODM9DKenBCi-515" value="Проверка завершена" style="text;html=1;align=center;verticalAlign=middle;resizable=0;points=[];autosize=1;strokeColor=none;fillColor=none;" vertex="1" parent="5nUSWNSxmODM9DKenBCi-482">
          <mxGeometry x="780" y="165" width="140" height="30" as="geometry" />
        </mxCell>
        <mxCell id="5nUSWNSxmODM9DKenBCi-516" value="Изучение информации о работе исполнителя" style="points=[[0.25,0,0],[0.5,0,0],[0.75,0,0],[1,0.25,0],[1,0.5,0],[1,0.75,0],[0.75,1,0],[0.5,1,0],[0.25,1,0],[0,0.75,0],[0,0.5,0],[0,0.25,0]];shape=mxgraph.bpmn.task;whiteSpace=wrap;rectStyle=rounded;size=10;html=1;container=1;expand=0;collapsible=0;taskMarker=manual;" vertex="1" parent="5nUSWNSxmODM9DKenBCi-482">
          <mxGeometry x="340" y="100" width="120" height="80" as="geometry" />
        </mxCell>
        <mxCell id="5nUSWNSxmODM9DKenBCi-517" style="edgeStyle=orthogonalEdgeStyle;rounded=0;orthogonalLoop=1;jettySize=auto;html=1;entryX=0;entryY=0.5;entryDx=0;entryDy=0;entryPerimeter=0;" edge="1" parent="5nUSWNSxmODM9DKenBCi-482" source="5nUSWNSxmODM9DKenBCi-500" target="5nUSWNSxmODM9DKenBCi-516">
          <mxGeometry relative="1" as="geometry" />
        </mxCell>
        <mxCell id="5nUSWNSxmODM9DKenBCi-518" style="edgeStyle=orthogonalEdgeStyle;rounded=0;orthogonalLoop=1;jettySize=auto;html=1;entryX=0;entryY=0.5;entryDx=0;entryDy=0;entryPerimeter=0;" edge="1" parent="5nUSWNSxmODM9DKenBCi-482" source="5nUSWNSxmODM9DKenBCi-516" target="5nUSWNSxmODM9DKenBCi-505">
          <mxGeometry relative="1" as="geometry" />
        </mxCell>
        <mxCell id="5nUSWNSxmODM9DKenBCi-538" value="US-270" style="text;html=1;align=center;verticalAlign=middle;resizable=0;points=[];autosize=1;strokeColor=none;fillColor=none;" vertex="1" parent="1">
          <mxGeometry x="160" y="360" width="60" height="30" as="geometry" />
        </mxCell>
      </root>
    </mxGraphModel>
  </diagram>
</mxfile>
